<svg width="240" height="200" viewBox="0 0 240 200" fill="none" xmlns="http://www.w3.org/2000/svg">
<path d="M24.0043 166.737C24.0043 166.737 49.2886 198.658 92.499 199.955C135.709 201.252 174.352 174.379 206.231 153.47C238.11 132.559 248.571 97.5264 232.654 68.632C216.737 39.7373 187.855 49.6371 153.191 29.3323C118.527 9.02746 112.314 -1.62084 72.0763 0.200666C31.838 2.02217 -1.41755 44.8651 0.0465695 92.8604C1.51069 140.856 24.0043 166.737 24.0043 166.737Z" fill="#F7F9FB"/>
<g clip-path="url(#clip0)">
<path d="M207.293 179.943H197.83V180.052H207.293V179.943Z" fill="#EBEBEB"/>
<path d="M161.361 177.688H146.472V177.797H161.361V177.688Z" fill="#EBEBEB"/>
<path d="M203.461 175.904H184.023V176.013H203.461V175.904Z" fill="#EBEBEB"/>
<path d="M86.4358 178.098H81.5732V178.206H86.4358V178.098Z" fill="#EBEBEB"/>
<path d="M77.6839 178.098H60.9268V178.206H77.6839V178.098Z" fill="#EBEBEB"/>
<path d="M51.9484 176.261H39.8574V176.37H51.9484V176.261Z" fill="#EBEBEB"/>
<path d="M114.363 153.532H30.0798C29.4196 153.531 28.7867 153.268 28.3203 152.802C27.8538 152.337 27.5918 151.705 27.5918 151.047V32.926C27.5975 32.2715 27.8621 31.6457 28.3279 31.1845C28.7938 30.7233 29.4233 30.464 30.0798 30.4629H114.363C115.024 30.4629 115.658 30.7247 116.125 31.1907C116.593 31.6567 116.856 32.2887 116.856 32.9478V151.047C116.856 151.706 116.593 152.338 116.125 152.804C115.658 153.27 115.024 153.532 114.363 153.532ZM30.0798 30.5499C29.4485 30.5511 28.8434 30.8019 28.3974 31.2474C27.9514 31.6929 27.7009 32.2966 27.7009 32.926V151.047C27.7009 151.676 27.9514 152.28 28.3974 152.726C28.8434 153.171 29.4485 153.422 30.0798 153.423H114.363C114.995 153.422 115.6 153.171 116.047 152.726C116.494 152.28 116.745 151.677 116.746 151.047V32.926C116.745 32.2962 116.494 31.6925 116.047 31.2471C115.6 30.8018 114.995 30.5511 114.363 30.5499H30.0798Z" fill="#EBEBEB"/>
<path d="M208.782 153.532H124.494C123.834 153.531 123.2 153.268 122.733 152.803C122.266 152.337 122.003 151.706 122.002 151.047V32.926C122.009 32.2711 122.274 31.6453 122.741 31.1842C123.207 30.7232 123.837 30.464 124.494 30.4629H208.782C209.438 30.4652 210.066 30.725 210.531 31.186C210.996 31.6471 211.26 32.2723 211.266 32.926V151.047C211.266 151.704 211.004 152.335 210.539 152.801C210.073 153.267 209.441 153.529 208.782 153.532ZM124.494 30.5499C123.863 30.5511 123.257 30.8018 122.81 31.2471C122.364 31.6925 122.112 32.2962 122.111 32.926V151.047C122.112 151.677 122.364 152.28 122.81 152.726C123.257 153.171 123.863 153.422 124.494 153.423H208.782C209.414 153.422 210.019 153.171 210.466 152.726C210.913 152.28 211.164 151.677 211.165 151.047V32.926C211.164 32.2962 210.913 31.6925 210.466 31.2471C210.019 30.8018 209.414 30.5511 208.782 30.5499H124.494Z" fill="#EBEBEB"/>
<path d="M105.227 93.947L105.424 88.2287L101.906 87.0799C101.754 85.142 101.439 83.2203 100.963 81.3355L103.948 79.1596L101.923 73.7895L98.2302 74.0854C97.3547 72.3552 96.3325 70.7028 95.1748 69.1461L97.0866 65.9649L93.1581 61.7829L89.8582 63.467C88.3743 62.2024 86.7889 61.0613 85.1179 60.0552L85.6504 56.3997L80.4124 54.0323L78.0117 56.8349C76.1596 56.2442 74.2616 55.8075 72.3372 55.5293L71.4642 51.9478L65.7112 51.752L64.5763 55.2639C62.6345 55.4161 60.7087 55.729 58.8189 56.1995L56.6015 53.2403L51.2151 55.2464L51.512 58.9281C49.7774 59.8142 48.1203 60.8434 46.5577 62.0048L43.3451 60.0552L39.1329 63.9718L40.8221 67.2792C39.5534 68.7512 38.4143 70.3295 37.4175 71.9965L33.7552 71.4482L31.3632 76.6704L34.1917 79.0595C33.5951 80.9048 33.157 82.7974 32.8823 84.7168L29.2462 85.6264L29.0498 91.3446L32.5854 92.4935C32.7317 94.4302 33.0457 96.3507 33.5239 98.2335L30.5383 100.409L32.568 105.784L36.2607 105.488C37.134 107.219 38.1564 108.872 39.3162 110.427L37.4 113.608L41.3285 117.791L44.6284 116.106C46.1084 117.371 47.691 118.51 49.36 119.514L48.81 123.165L54.048 125.537L56.4618 122.734C58.3138 123.33 60.2117 123.774 62.1363 124.061L63.0093 127.643L68.7623 127.839L69.8972 124.327C71.8403 124.173 73.7673 123.86 75.659 123.391L77.8415 126.351L83.2278 124.344L82.9485 120.663C84.6798 119.771 86.3365 118.742 87.9027 117.586L91.0761 119.492L95.2883 115.575L93.599 112.268C94.8681 110.796 96.0073 109.218 97.0037 107.551L100.666 108.099L103.058 102.877L100.229 100.483C100.836 98.6395 101.282 96.7466 101.561 94.8261L105.227 93.947ZM66.4707 112.473C61.9695 112.321 57.6146 110.842 53.9567 108.222C50.2988 105.603 47.5024 101.96 45.9211 97.7561C44.3399 93.5518 44.0448 88.9744 45.0734 84.6029C46.1019 80.2313 48.4077 76.2622 51.6992 73.1974C54.9907 70.1326 59.12 68.1099 63.5647 67.3852C68.0094 66.6605 72.5698 67.2663 76.6691 69.126C80.7685 70.9857 84.2225 74.0157 86.5942 77.8328C88.966 81.6499 90.149 86.0825 89.9935 90.57C89.7864 96.584 87.192 102.27 82.7809 106.377C78.3697 110.484 72.503 112.677 66.4707 112.473Z" fill="#EBEBEB"/>
<path d="M203.409 75.0338L204.854 73.6891L204.282 72.5533C204.718 72.0443 205.111 71.4999 205.456 70.9257L206.722 71.1128L207.538 69.3112L206.569 68.4887C206.778 67.8517 206.931 67.198 207.027 66.5347L208.271 66.2258L208.332 64.25L207.119 63.8584C207.066 63.1892 206.958 62.5256 206.796 61.874L207.822 61.1124L207.123 59.2629L205.853 59.363C205.547 58.7665 205.192 58.1959 204.792 57.6571L205.452 56.5691L204.094 55.1243L202.959 55.7031C202.448 55.2692 201.902 54.8777 201.327 54.5325L201.51 53.2705L199.707 52.448L198.878 53.4184C198.238 53.2197 197.582 53.0741 196.918 52.9832L196.608 51.7473L194.626 51.6733L194.229 52.8918C193.561 52.9428 192.898 53.0505 192.248 53.2139L191.488 52.1912L189.629 52.8831L189.733 54.1539C189.133 54.4563 188.561 54.8101 188.022 55.2114L186.922 54.5542L185.473 55.8989L186.036 57.0086C185.597 57.5161 185.202 58.0607 184.858 58.6362L183.596 58.4491L182.776 60.2507L183.749 61.0776C183.547 61.7136 183.401 62.366 183.312 63.0272L182.064 63.3362L182.003 65.3119L183.221 65.7035C183.27 66.3728 183.377 67.0367 183.539 67.688L182.509 68.4452L183.208 70.2947L184.482 70.199C184.789 70.7955 185.143 71.366 185.543 71.9049L184.884 72.9928L186.241 74.4376L187.376 73.8588C187.886 74.2941 188.433 74.6857 189.009 75.0295L188.821 76.2871L190.628 77.1096L191.457 76.1435C192.098 76.3402 192.753 76.4857 193.417 76.5787L193.727 77.8146L195.709 77.8886L196.106 76.6701C196.775 76.6194 197.438 76.5117 198.088 76.3481L198.847 77.3707L200.707 76.6788L200.606 75.4081C201.205 75.1052 201.776 74.7514 202.313 74.3506L203.409 75.0338ZM193.099 66.7088C192.718 66.3016 192.466 65.7908 192.376 65.2411C192.286 64.6914 192.362 64.1274 192.593 63.6205C192.825 63.1137 193.202 62.6867 193.677 62.3936C194.152 62.1004 194.704 61.9544 195.262 61.9739C195.821 61.9934 196.361 62.1775 196.814 62.503C197.267 62.8286 197.614 63.2808 197.809 63.8026C198.004 64.3244 198.04 64.8922 197.912 65.4343C197.784 65.9764 197.497 66.4684 197.088 66.8481C196.817 67.1031 196.498 67.302 196.149 67.4331C195.8 67.5643 195.428 67.6252 195.056 67.6122C194.683 67.5993 194.317 67.5128 193.978 67.3577C193.639 67.2026 193.334 66.9821 193.081 66.7088H193.099Z" fill="#EBEBEB"/>
<path d="M150.592 133.748L146.079 130.637C145.636 129.017 145.028 127.446 144.263 125.95L145.42 121.424L138.872 114.435L134.263 115.275C132.817 114.411 131.285 113.698 129.693 113.147L126.89 108.443L117.287 108.116L114.171 112.616C112.548 113.057 110.974 113.662 109.474 114.422L104.935 113.269L97.9244 119.796L98.7668 124.383C97.9013 125.828 97.1874 127.358 96.6367 128.948L91.9182 131.742L91.5908 141.316L96.1086 144.423C96.5436 146.052 97.1508 147.631 97.92 149.132L96.7502 153.619L103.298 160.608L107.877 159.772C109.333 160.637 110.875 161.351 112.477 161.904L115.275 166.6L124.878 166.931L127.99 162.431C129.628 161.99 131.217 161.383 132.731 160.621L137.244 161.77L144.259 155.242L143.416 150.655C144.284 149.21 144.998 147.679 145.546 146.086L150.265 143.292L150.592 133.748ZM120.714 148.279C118.582 148.206 116.52 147.505 114.788 146.264C113.055 145.023 111.731 143.297 110.983 141.306C110.234 139.315 110.094 137.147 110.582 135.076C111.069 133.006 112.161 131.126 113.719 129.674C115.278 128.222 117.233 127.264 119.338 126.92C121.443 126.576 123.603 126.862 125.545 127.742C127.487 128.622 129.124 130.057 130.248 131.864C131.373 133.671 131.934 135.77 131.862 137.896C131.762 140.746 130.531 143.441 128.44 145.387C126.349 147.334 123.569 148.374 120.71 148.279H120.714Z" fill="#EBEBEB"/>
<path d="M160.872 106.619H160.841L153.281 106.363C153.128 106.36 152.978 106.318 152.845 106.242C152.713 106.166 152.601 106.058 152.522 105.927L150.483 102.511C149.385 102.11 148.322 101.618 147.306 101.04L144.045 101.602C143.893 101.629 143.737 101.618 143.59 101.57C143.444 101.521 143.312 101.436 143.207 101.323L138.043 95.8138C137.935 95.6996 137.858 95.5596 137.82 95.4071C137.781 95.2547 137.783 95.0949 137.825 94.9434L138.65 91.7187C138.139 90.6738 137.721 89.586 137.401 88.4679L134.115 86.205C133.987 86.1177 133.884 85.9998 133.814 85.862C133.745 85.7243 133.712 85.5713 133.717 85.4173L133.975 77.88C133.98 77.7278 134.023 77.5792 134.099 77.4472C134.175 77.3152 134.282 77.2038 134.411 77.1228L137.847 75.0905C138.243 73.9976 138.735 72.9419 139.318 71.9354L138.715 68.6585C138.687 68.5064 138.698 68.3496 138.747 68.2028C138.796 68.056 138.881 67.9238 138.995 67.8186L144.521 62.6748C144.635 62.5664 144.775 62.489 144.928 62.4501C145.081 62.4113 145.241 62.4122 145.394 62.4529L148.641 63.2797C149.687 62.7699 150.775 62.3519 151.893 62.0307L154.163 58.7538C154.247 58.6237 154.365 58.5183 154.504 58.4487C154.643 58.3791 154.798 58.3477 154.953 58.3578L162.509 58.6189C162.662 58.6222 162.813 58.6637 162.946 58.7397C163.08 58.8157 163.192 58.9238 163.273 59.0541L165.311 62.4746C166.402 62.8739 167.456 63.366 168.463 63.9455L171.763 63.3406C171.914 63.3125 172.071 63.3233 172.218 63.372C172.364 63.4207 172.496 63.5058 172.601 63.6191L177.764 69.1285C177.872 69.2431 177.949 69.3832 177.987 69.5355C178.025 69.6878 178.024 69.8473 177.983 69.9989L177.153 73.2323C177.665 74.2751 178.085 75.3598 178.41 76.4743L181.693 78.7373C181.82 78.8245 181.924 78.9425 181.993 79.0802C182.063 79.2179 182.096 79.3709 182.09 79.525L181.833 87.0579C181.827 87.2107 181.785 87.3599 181.709 87.4926C181.633 87.6253 181.525 87.7375 181.396 87.8195L177.961 89.8518C177.562 90.9421 177.07 91.9962 176.49 93.0025L177.092 96.2837C177.12 96.4352 177.11 96.5913 177.061 96.7375C177.012 96.8836 176.927 97.015 176.813 97.1193L171.252 102.267C171.137 102.376 170.997 102.452 170.844 102.49C170.691 102.529 170.531 102.527 170.379 102.485L167.149 101.663C166.096 102.17 165.003 102.588 163.879 102.912L161.631 106.184C161.55 106.313 161.439 106.421 161.306 106.496C161.174 106.572 161.025 106.615 160.872 106.619ZM153.849 104.543L160.396 104.765L162.579 101.636C162.7 101.454 162.885 101.323 163.098 101.271C164.326 100.936 165.518 100.48 166.656 99.9088C166.854 99.8135 167.079 99.7904 167.293 99.8435L170.348 100.622L175.15 96.1619L174.6 93.0155C174.557 92.7957 174.598 92.5679 174.713 92.3758C175.362 91.2982 175.896 90.1563 176.307 88.9684C176.376 88.753 176.522 88.5704 176.717 88.4549L180.004 86.514L180.226 79.9863L177.083 77.8104C176.918 77.6976 176.794 77.5341 176.73 77.3447C176.73 77.323 176.73 77.2968 176.73 77.2707C176.394 76.0679 175.937 74.9016 175.368 73.7893C175.267 73.5902 175.242 73.3612 175.298 73.1452L176.084 70.0641L171.61 65.2772L168.471 65.8516C168.252 65.8912 168.026 65.8511 167.834 65.7385C166.751 65.0908 165.604 64.5556 164.412 64.1414C164.344 64.1195 164.278 64.0903 164.216 64.0543C164.09 63.976 163.985 63.8685 163.91 63.741L161.941 60.4554L155.394 60.2291L153.211 63.3667C153.081 63.5507 152.889 63.6819 152.67 63.7366C151.455 64.0678 150.276 64.5213 149.152 65.09C148.954 65.1908 148.726 65.2156 148.51 65.1597L145.42 64.3763L140.618 68.8369L141.195 71.9572C141.229 72.154 141.2 72.3566 141.112 72.536L141.068 72.61C140.419 73.6917 139.885 74.8381 139.475 76.0305C139.403 76.2349 139.26 76.4075 139.073 76.5179L135.786 78.4631L135.564 84.9908L138.711 87.1667C138.89 87.2891 139.02 87.4711 139.078 87.6802C139.405 88.9022 139.86 90.0866 140.435 91.2139C140.466 91.2781 140.491 91.3451 140.509 91.4141C140.542 91.5573 140.542 91.7061 140.509 91.8493L139.724 94.8955L144.198 99.6825L147.314 99.1124C147.532 99.0727 147.757 99.1129 147.947 99.2256C149.038 99.872 150.192 100.407 151.391 100.823C151.608 100.887 151.791 101.032 151.902 101.227L153.849 104.543ZM157.895 96.2881C157.734 96.2881 157.572 96.2881 157.411 96.2881C153.782 96.2244 150.325 94.7344 147.793 92.1424C145.261 89.5504 143.859 86.0663 143.891 82.4482C143.922 78.8302 145.387 75.3712 147.964 72.824C150.541 70.2769 154.024 68.8478 157.653 68.8478C161.282 68.8478 164.764 70.2769 167.342 72.824C169.919 75.3712 171.383 78.8302 171.415 82.4482C171.447 86.0663 170.044 89.5504 167.512 92.1424C164.98 94.7344 161.524 96.2244 157.895 96.2881ZM157.895 70.5733C154.724 70.6278 151.703 71.9289 149.49 74.1934C147.276 76.4579 146.05 79.5024 146.077 82.6641C146.105 85.8258 147.384 88.8488 149.636 91.0749C151.888 93.3009 154.931 94.5499 158.102 94.5499C161.274 94.5499 164.317 93.3009 166.569 91.0749C168.821 88.8488 170.1 85.8258 170.127 82.6641C170.155 79.5024 168.928 76.4579 166.715 74.1934C164.502 71.9289 161.481 70.6278 158.31 70.5733H157.895Z" fill="#EBEBEB"/>
<path d="M178.284 52.3613L175.15 51.5257L174.312 48.4011L175.538 47.1826L176.83 49.8503L179.51 51.1428L178.284 52.3613Z" fill="#E0E0E0"/>
<path d="M178.476 50.2723C178.611 50.1372 178.719 49.9767 178.792 49.8001C178.866 49.6235 178.903 49.4343 178.903 49.2431C178.903 49.052 178.866 48.8627 178.792 48.6861C178.719 48.5095 178.611 48.3491 178.476 48.2139C178.34 48.0788 178.179 47.9715 178.002 47.8984C177.825 47.8253 177.635 47.7876 177.443 47.7876C177.252 47.7876 177.062 47.8253 176.885 47.8984C176.708 47.9715 176.547 48.0788 176.411 48.2139L177.969 45.8813L180.056 46.9345L180.514 49.1104L178.476 50.2723Z" fill="#E0E0E0"/>
<path d="M175.289 47.4346L177.585 45.1455L180.71 45.9767L181.553 49.0969L179.257 51.386L176.127 50.5461L175.289 47.4346ZM179.458 49.3058C179.662 49.1019 179.801 48.8421 179.857 48.5594C179.914 48.2766 179.885 47.9836 179.774 47.7173C179.663 47.451 179.476 47.2234 179.235 47.0632C178.995 46.9031 178.712 46.8176 178.423 46.8176C178.134 46.8176 177.851 46.9031 177.611 47.0632C177.37 47.2234 177.183 47.451 177.072 47.7173C176.962 47.9836 176.933 48.2766 176.989 48.5594C177.045 48.8421 177.184 49.1019 177.389 49.3058C177.665 49.5763 178.038 49.7271 178.425 49.7254C178.812 49.7238 179.183 49.5699 179.458 49.2971V49.3058Z" fill="#F0F0F0"/>
<path d="M50.2939 135.65L51.9744 135.198L52.424 133.522L51.7692 132.87L51.0752 134.301L49.6348 134.993L50.2939 135.65Z" fill="#E0E0E0"/>
<path d="M50.1975 134.527C50.0662 134.378 49.9968 134.184 50.0034 133.985C50.01 133.787 50.0921 133.598 50.2331 133.457C50.3741 133.317 50.5634 133.235 50.7626 133.228C50.9619 133.222 51.1562 133.291 51.3062 133.422L50.4725 132.173L49.3245 132.73L49.0801 133.905L50.1975 134.527Z" fill="#E0E0E0"/>
<path d="M51.8997 133L50.6688 131.773L48.9883 132.208L48.5518 133.884L49.7609 135.124L51.4414 134.689L51.8997 133ZM49.6648 134.005C49.5839 133.935 49.5184 133.848 49.4723 133.751C49.4263 133.655 49.4007 133.549 49.3971 133.442C49.3936 133.335 49.4121 133.228 49.4516 133.128C49.4911 133.029 49.5508 132.938 49.6268 132.862C49.7029 132.786 49.7937 132.727 49.8938 132.688C49.9938 132.648 50.1009 132.63 50.2084 132.633C50.3159 132.637 50.4215 132.662 50.5187 132.708C50.616 132.754 50.7027 132.819 50.7735 132.9C50.9049 133.05 50.9743 133.243 50.9677 133.442C50.9611 133.641 50.8789 133.829 50.738 133.97C50.597 134.111 50.4077 134.192 50.2084 134.199C50.0091 134.206 49.8148 134.136 49.6648 134.005Z" fill="#F0F0F0"/>
<path d="M44.244 43.8058L45.6408 45.1984C45.8155 45.3695 46.0506 45.4654 46.2956 45.4654C46.5405 45.4654 46.7756 45.3695 46.9503 45.1984C47.121 45.0237 47.2164 44.7894 47.2164 44.5456C47.2164 44.3017 47.121 44.0675 46.9503 43.8928L45.5579 42.5046C45.3827 42.3345 45.1477 42.2393 44.9031 42.2393C44.6586 42.2393 44.4236 42.3345 44.2484 42.5046C44.0774 42.678 43.9813 42.9112 43.9805 43.1543C43.9797 43.3974 44.0742 43.6312 44.244 43.8058Z" fill="#F0F0F0"/>
<path d="M43.2623 40.3457C43.6268 40.2446 44.013 40.2519 44.3734 40.3666C44.7338 40.4813 45.0527 40.6984 45.2911 40.9913C45.5295 41.2842 45.6768 41.6401 45.7151 42.0154C45.7535 42.3906 45.681 42.7688 45.5067 43.1036C45.3325 43.4383 45.0639 43.7151 44.7341 43.8998C44.4043 44.0846 44.0275 44.1692 43.6501 44.1435C43.2726 44.1177 42.911 43.9826 42.6095 43.7548C42.308 43.527 42.0797 43.2164 41.9528 42.861C41.8723 42.6102 41.8423 42.3459 41.8646 42.0835C41.8868 41.821 41.961 41.5655 42.0827 41.3317C42.2044 41.098 42.3713 40.8905 42.5737 40.7213C42.7762 40.552 43.0102 40.4244 43.2623 40.3457Z" fill="#E0E0E0"/>
<path d="M41.7431 42.6279L41.9453 43.189L46.0943 41.703L45.8922 41.1419L41.7431 42.6279Z" fill="#F0F0F0"/>
<path d="M120.037 192.594C166.778 192.594 204.669 190.388 204.669 187.667C204.669 184.947 166.778 182.741 120.037 182.741C73.2955 182.741 35.4043 184.947 35.4043 187.667C35.4043 190.388 73.2955 192.594 120.037 192.594Z" fill="#F5F5F5"/>
<path d="M48.766 59.0323C48.3295 57.1131 48.5216 55.503 49.3509 54.1887C50.1803 52.8745 51.5334 52.0128 53.4584 51.5777C55.3833 51.1425 57.0464 51.3166 58.3472 52.126C59.6479 52.9354 60.5296 54.3019 60.9661 56.1732C61.2743 57.3281 61.2998 58.54 61.0403 59.7068C60.7866 60.6759 60.2504 61.5481 59.4995 62.2135C58.6077 62.962 57.5372 63.4687 56.3917 63.6844C55.2687 63.9816 54.0928 64.0218 52.9521 63.8019C51.9604 63.5616 51.0636 63.0312 50.3767 62.2787C49.5561 61.3611 48.9996 60.2394 48.766 59.0323ZM52.4064 58.2229C52.6771 59.4065 53.0917 60.2073 53.6504 60.625C53.9389 60.8168 54.2632 60.9484 54.6039 61.0119C54.9446 61.0755 55.2947 61.0697 55.6332 60.9949C55.9716 60.9201 56.2914 60.7778 56.5732 60.5767C56.8551 60.3755 57.0933 60.1196 57.2734 59.8243C57.5877 59.2194 57.592 58.2577 57.2952 56.9478C57.042 55.8424 56.6332 55.0852 56.0686 54.6761C55.7844 54.4728 55.4581 54.3355 55.1136 54.2745C54.7691 54.2135 54.4153 54.2303 54.0782 54.3236C53.7408 54.3866 53.4222 54.5251 53.1462 54.7286C52.8702 54.9321 52.6442 55.1954 52.485 55.4986C52.162 56.1383 52.1314 57.0087 52.4064 58.2229Z" fill="#263238"/>
<path d="M62.6773 57.5963C62.5222 57.0032 62.4946 56.3842 62.5961 55.7797C62.6977 55.1753 62.9261 54.599 63.2665 54.0887C63.6482 53.5466 64.1334 53.0849 64.6945 52.7301C65.2555 52.3754 65.8813 52.1346 66.5359 52.0216C68.2441 51.6358 69.6467 51.8374 70.7437 52.6265C71.667 53.3401 72.2947 54.3673 72.5072 55.5125C72.7197 56.6578 72.5022 57.8409 71.8961 58.8365C71.2152 59.8723 70.1064 60.5627 68.57 60.908C67.3863 61.2379 66.1233 61.1361 65.0082 60.6208C64.4118 60.3302 63.8911 59.906 63.4867 59.3812C63.0823 58.8565 62.8053 58.2456 62.6773 57.5963ZM65.9554 56.8434C66.0437 57.4515 66.3415 58.01 66.7978 58.4231C66.9787 58.5596 67.1872 58.6552 67.4088 58.7032C67.6305 58.7513 67.86 58.7506 68.0814 58.7014C68.3027 58.6521 68.5107 58.5554 68.6908 58.4179C68.8709 58.2804 69.0189 58.1055 69.1243 57.9052C69.3529 57.3207 69.3744 56.6759 69.1854 56.0775C69.0936 55.4836 68.7991 54.9395 68.3517 54.537C68.1781 54.3966 67.9744 54.2981 67.7563 54.249C67.5383 54.2 67.3119 54.2017 67.0946 54.2541C66.8681 54.3009 66.6553 54.3985 66.4723 54.5395C66.2893 54.6805 66.1408 54.8612 66.0383 55.0679C65.8032 55.6318 65.7739 56.2601 65.9554 56.8434Z" fill="#263238"/>
<path d="M75.7675 62.4788L73.0918 50.729L76.1473 50.0327L76.4354 51.2904C76.6509 50.7888 76.9639 50.3347 77.3564 49.9544C77.787 49.5899 78.3013 49.3373 78.8536 49.2189C79.3639 49.0805 79.9009 49.0726 80.4151 49.1958C80.9293 49.319 81.4041 49.5694 81.7955 49.9239C82.6583 50.7279 83.2435 51.7836 83.4673 52.9397C83.7903 54.354 83.6943 55.5116 83.188 56.4211C82.9471 56.856 82.6143 57.2334 82.2126 57.5272C81.8108 57.8211 81.3498 58.0242 80.8614 58.1227C80.3909 58.2339 79.9032 58.2531 79.4254 58.1793C78.9671 58.0992 78.5302 57.9259 78.1421 57.6701L79.0674 61.7303L75.7675 62.4788ZM77.3433 54.2713C77.4234 54.8149 77.6959 55.3119 78.1115 55.6726C78.2782 55.7998 78.4716 55.8878 78.6772 55.93C78.8827 55.9722 79.0953 55.9675 79.2988 55.9163C79.4878 55.8785 79.6653 55.797 79.8169 55.6784C79.9685 55.5597 80.0901 55.4072 80.1718 55.2331C80.3574 54.6884 80.3574 54.0979 80.1718 53.5533C80.092 53.007 79.8289 52.5039 79.4254 52.1259C79.2757 52.002 79.0994 51.914 78.9102 51.8687C78.721 51.8234 78.5239 51.8221 78.3341 51.8648C78.1336 51.908 77.9454 51.9957 77.7836 52.1216C77.6219 52.2474 77.4908 52.4081 77.4 52.5915C77.1863 53.128 77.1663 53.7218 77.3433 54.2713Z" fill="#263238"/>
<path d="M84.8687 54.5282L88.0464 53.4881C88.2154 53.7944 88.4786 54.0384 88.7972 54.1844C89.14 54.2834 89.5029 54.2913 89.8497 54.2073C90.1966 54.1233 90.5154 53.9504 90.7745 53.7057C90.847 53.6289 90.8995 53.5356 90.9277 53.434C90.9558 53.3324 90.9587 53.2255 90.936 53.1225C90.9098 53.0047 90.8488 52.8974 90.7609 52.8144C90.673 52.7315 90.5622 52.6766 90.4428 52.6569C89.9496 52.6029 89.4519 52.6029 88.9587 52.6569C88.1309 52.7271 87.2985 52.7271 86.4707 52.6569C85.9861 52.5868 85.5317 52.3799 85.1612 52.0607C84.7659 51.7196 84.4929 51.2594 84.3834 50.7498C84.2739 50.2402 84.334 49.7089 84.5544 49.2364C84.809 48.7307 85.2046 48.3091 85.6937 48.0222C86.39 47.6279 87.1464 47.35 87.9329 47.1997C88.6837 46.9966 89.46 46.9028 90.2376 46.9212C90.726 46.9526 91.1994 47.1019 91.617 47.3564C92.0619 47.6556 92.4395 48.0439 92.7257 48.4966L89.6702 49.5018C89.556 49.2751 89.3661 49.0951 89.1333 48.9927C88.8149 48.8791 88.4696 48.864 88.1425 48.9492C87.8534 48.9893 87.5852 49.1222 87.3786 49.3278C87.3129 49.3978 87.2655 49.4828 87.2404 49.5754C87.2153 49.6679 87.2133 49.7652 87.2345 49.8587C87.2582 49.9616 87.3125 50.0549 87.3905 50.1264C87.4684 50.1979 87.5662 50.2441 87.671 50.259C88.159 50.3155 88.6525 50.3053 89.1377 50.2286C89.9794 50.107 90.8334 50.0953 91.6781 50.1938C92.2095 50.2686 92.7072 50.4971 93.1098 50.8509C93.4738 51.18 93.7269 51.6132 93.8344 52.0912C93.9462 52.6037 93.9052 53.1377 93.7165 53.6273C93.4857 54.207 93.0839 54.7032 92.5642 55.0504C91.7986 55.5494 90.9409 55.8911 90.0412 56.0556C88.4844 56.4096 87.3204 56.4401 86.5492 56.147C85.7979 55.8479 85.1944 55.2666 84.8687 54.5282Z" fill="#263238"/>
<path d="M95.5273 43.7661H99.111V46.5077L98.4519 52.0215H96.2345L95.5273 46.5165V43.7661ZM95.7019 52.8527H99.0455V55.8032H95.7019V52.8527Z" fill="#263238"/>
<path d="M67.0811 81.1959H67.0026C65.0383 80.4344 63.8642 79.6946 63.2531 78.8024C62.7747 78.8928 62.2799 78.8256 61.8432 78.611C61.3317 78.3614 60.9073 77.9641 60.6254 77.4708C60.4771 77.5842 60.3026 77.6584 60.1179 77.6865C59.9333 77.7147 59.7445 77.6959 59.569 77.6318C59.0311 77.4311 58.572 77.0635 58.2595 76.583C58.0641 76.7282 57.8211 76.795 57.5786 76.7701C56.2691 76.6657 54.5231 74.0894 54.3965 71.3478C54.3953 71.2899 54.4163 71.2338 54.4552 71.1909C54.4942 71.148 54.5482 71.1216 54.6061 71.1172C54.6347 71.116 54.6633 71.1205 54.6903 71.1303C54.7172 71.1402 54.7419 71.1553 54.763 71.1747C54.7841 71.1941 54.8011 71.2174 54.8131 71.2434C54.8251 71.2694 54.8319 71.2975 54.833 71.326C54.9553 73.9371 56.627 76.2566 57.6179 76.335C57.69 76.343 57.763 76.3368 57.8326 76.3167C57.9023 76.2965 57.9673 76.2628 58.0238 76.2175C57.6824 75.597 57.4681 74.9151 57.3931 74.2114C57.3182 73.5077 57.3842 72.7962 57.5873 72.1181C57.9627 70.8125 58.2945 70.299 58.696 70.3773C59.4468 70.5645 59.3464 73.4236 58.9492 75.2905C58.889 75.6272 58.7645 75.9493 58.5825 76.2392C58.8399 76.6694 59.2283 77.0064 59.6913 77.201C59.8146 77.2478 59.9489 77.2584 60.0781 77.2314C60.2073 77.2044 60.3261 77.141 60.4202 77.0487C60.0797 76.2088 59.9837 75.0599 60.4726 73.5977C61.0837 71.6698 61.3456 71.6176 61.4809 71.5828C61.5318 71.5721 61.5846 71.5754 61.6338 71.5923C61.683 71.6091 61.7267 71.6389 61.7602 71.6785C62.1662 72.1355 61.6817 75.1295 61.1753 76.6091C61.116 76.7872 61.0339 76.9569 60.9309 77.1139C61.1651 77.5846 61.5466 77.9665 62.0178 78.2019C62.3268 78.3517 62.6705 78.4163 63.013 78.389C62.9737 78.3063 62.9388 78.2237 62.9039 78.1366C62.559 77.201 62.7293 76.1261 63.4233 74.8379C63.8816 73.9893 64.257 73.589 64.6062 73.589C64.6989 73.5902 64.7893 73.6179 64.8667 73.6688C64.944 73.7197 65.0051 73.7917 65.0427 73.8762C65.4225 74.5768 65.1475 76.8876 64.3967 78.0365C64.2209 78.2999 63.9764 78.5105 63.6896 78.6458C64.2745 79.4117 65.3875 80.0862 67.1815 80.7738C67.2084 80.7835 67.2331 80.7984 67.2541 80.8178C67.2751 80.8371 67.292 80.8604 67.3038 80.8864C67.3156 80.9124 67.3221 80.9404 67.3228 80.9689C67.3236 80.9974 67.3186 81.0258 67.3081 81.0523C67.2912 81.0977 67.2598 81.1362 67.2188 81.1621C67.1779 81.1881 67.1295 81.1999 67.0811 81.1959ZM64.6018 74.0285C64.6018 74.0285 64.353 74.0285 63.8031 75.0512C63.1701 76.2175 63.0086 77.1792 63.3098 77.9887C63.3463 78.0889 63.3901 78.1863 63.4408 78.2802C63.6772 78.1828 63.8782 78.0158 64.0169 77.8015C64.628 76.8702 64.9205 74.9554 64.6935 74.2069C64.663 74.0546 64.6018 74.0285 64.6018 74.0285ZM61.4678 72.1964C61.2315 72.6919 61.0359 73.2056 60.8829 73.7326C60.5481 74.6459 60.4904 75.6372 60.717 76.583L60.7563 76.4699C61.2147 75.0905 61.459 73.6494 61.4809 72.1964H61.4678ZM58.5956 70.8256C58.5214 70.8909 58.3076 71.165 58.0064 72.2269C57.6502 73.4185 57.7625 74.7007 58.3206 75.8128C58.4102 75.6182 58.4762 75.4137 58.5171 75.2035C58.9841 73.0668 58.8532 71.1346 58.6087 70.8256H58.5956Z" fill="#263238"/>
<path d="M83.6764 104.008C82.9786 104.015 82.2916 103.836 81.686 103.49C81.6362 103.46 81.6 103.412 81.5853 103.356C81.5706 103.3 81.5786 103.24 81.6074 103.19C81.6218 103.165 81.641 103.144 81.6638 103.127C81.6866 103.11 81.7126 103.098 81.7402 103.091C81.7679 103.084 81.7966 103.082 81.8248 103.087C81.853 103.091 81.88 103.101 81.9043 103.116C83.4626 104.025 85.4748 103.39 85.8895 102.724C85.9194 102.683 85.9407 102.635 85.9519 102.585C85.9632 102.535 85.9642 102.483 85.955 102.433C85.1581 102.478 84.3691 102.254 83.7157 101.797C82.6026 101.105 82.5154 100.896 82.5241 100.731C82.5262 100.684 82.5411 100.638 82.5672 100.598C82.5933 100.558 82.6297 100.526 82.6725 100.505C83.109 100.287 85.0776 101.188 85.8982 101.728C85.9966 101.793 86.0874 101.869 86.1688 101.954C86.4913 101.881 86.7819 101.707 86.9982 101.458C87.1199 101.315 87.2079 101.147 87.2557 100.966H87.1684C86.47 101.036 85.7716 100.735 85.0252 100.048C84.5101 99.5779 84.3137 99.2515 84.3792 98.9948C84.399 98.9226 84.4391 98.8576 84.4948 98.8075C84.5505 98.7574 84.6195 98.7242 84.6935 98.7119C85.2958 98.5596 86.7887 99.1949 87.3954 99.8608C87.5307 100.006 87.6268 100.182 87.6748 100.374C88.2466 100.109 88.8489 99.5039 89.5604 98.5161C89.577 98.4925 89.598 98.4725 89.6224 98.4571C89.6467 98.4417 89.6739 98.4313 89.7023 98.4265C89.7307 98.4216 89.7598 98.4224 89.7879 98.4288C89.816 98.4352 89.8425 98.4471 89.866 98.4638C89.9127 98.4979 89.9443 98.5487 89.9541 98.6056C89.9639 98.6624 89.951 98.7209 89.9183 98.7685C89.0934 99.9173 88.4037 100.57 87.714 100.836C87.6783 101.157 87.5459 101.461 87.3343 101.706C87.0828 101.997 86.7524 102.21 86.3827 102.32C86.4035 102.423 86.4034 102.53 86.3824 102.634C86.3614 102.738 86.32 102.837 86.2605 102.924C85.8938 103.547 84.8375 104.008 83.6764 104.008ZM83.288 100.988C83.4364 101.097 83.6459 101.24 83.9471 101.423C84.4164 101.739 84.9557 101.936 85.5185 101.998C84.8159 101.577 84.0676 101.239 83.288 100.988ZM84.8113 99.1384C84.9367 99.3737 85.1108 99.5799 85.322 99.7433C85.968 100.339 86.5573 100.614 87.1248 100.544H87.2644C87.2334 100.409 87.1672 100.284 87.0724 100.183C86.4613 99.4952 85.1169 99.0687 84.8113 99.1384Z" fill="#263238"/>
<path d="M91.0389 114.785L84.7316 115.928L84.2383 116.017L84.3289 116.51L86.1153 126.235L73.9781 128.441L72.1913 118.714L72.1012 118.224L71.6105 118.312L44.6673 123.189L42.4943 111.364L63.678 73.8653L76.0776 71.6199L82.1639 104.734L82.254 105.225L82.7447 105.136L89.0547 103.993L91.0389 114.785ZM54.6045 109.417L54.0715 110.349L55.1274 110.158L69.6409 107.534L70.1344 107.444L70.0437 106.951L66.8791 89.744L66.632 88.4003L65.9534 89.5861L54.6045 109.417Z" fill="white" stroke="#263238"/>
<path d="M143.735 68.8073L143.735 68.8073L143.736 68.8145C144.241 73.3045 144.197 77.8391 143.606 82.3187L143.606 82.3204C142.269 92.7237 139.552 100.008 135.531 104.279C131.554 108.504 125.405 110.139 116.942 109.039L116.941 109.039C112.179 108.424 108.483 107.168 105.816 105.301C103.102 103.389 100.952 100.788 99.5894 97.7666L99.5896 97.7666L99.5848 97.7566C98.5212 95.5321 97.8344 92.5638 97.5459 88.828C97.2729 84.7477 97.418 80.6504 97.979 76.5995L97.979 76.5995L97.9796 76.5952C99.393 65.6919 102.313 58.4533 106.628 54.7147C110.946 50.9741 117.01 49.5667 124.91 50.5939L124.91 50.5939C128.721 51.0883 131.742 51.9623 133.997 53.1957L133.997 53.1958L134.007 53.2009C136.083 54.2782 137.915 55.7685 139.391 57.5795C140.641 59.1409 141.645 60.883 142.368 62.7458C143.073 64.702 143.533 66.7381 143.735 68.8073Z" fill="white" stroke="#263238"/>
<path d="M120.81 105.065C119.758 105.031 118.628 104.935 117.489 104.787C113.49 104.269 110.4 103.259 108.296 101.789C106.198 100.311 104.539 98.2967 103.494 95.9571L103.473 95.9093C102.635 94.1685 102.085 91.6663 101.845 88.5112C101.59 84.7214 101.725 80.9156 102.246 77.153C103.804 65.0898 107.021 60.0548 109.444 57.9572C112.272 55.5115 116.092 54.4062 121.112 54.5802C122.142 54.6151 123.233 54.7064 124.355 54.8501C127.576 55.2852 130.13 55.9815 131.937 56.965C133.498 57.7668 134.881 58.8755 136 60.2245C136.98 61.4429 137.768 62.8033 138.336 64.2586C138.916 65.8815 139.291 67.5698 139.453 69.285C139.919 73.4408 139.876 77.6377 139.327 81.7833C138.117 91.1571 135.778 97.7457 132.378 101.366C129.855 104.047 126.07 105.283 120.806 105.083L120.81 105.065Z" fill="#263238"/>
<path d="M129.352 68.8849L129.409 67.2355L128.392 66.9048C128.348 66.347 128.258 65.7938 128.121 65.2511L128.994 64.6158L128.409 63.0665L127.344 63.1536C127.094 62.6556 126.802 62.1796 126.471 61.7305L127.021 60.8123L125.886 59.6068L124.935 60.0942C124.509 59.7293 124.053 59.4003 123.573 59.1107L123.726 58.0576L122.215 57.3744L121.526 58.1838C120.991 58.0112 120.444 57.8832 119.889 57.8008L119.631 56.7695L117.972 56.7129L117.645 57.7225C117.086 57.7671 116.531 57.8574 115.986 57.9923L115.345 57.122L113.791 57.7007L113.878 58.7626C113.379 59.0125 112.901 59.3036 112.451 59.6329L111.534 59.0803L110.321 60.2074L110.81 61.1604C110.442 61.5846 110.114 62.0405 109.827 62.5225L108.771 62.3615L108.081 63.8672L108.898 64.5548C108.721 65.0876 108.592 65.6353 108.514 66.1911L107.475 66.4522L107.418 68.0972L108.435 68.4279C108.478 68.9873 108.568 69.542 108.706 70.086L107.833 70.717L108.418 72.2662L109.483 72.1792C109.731 72.6785 110.023 73.1547 110.356 73.6022L109.801 74.5205L110.936 75.7259L111.888 75.2429C112.314 75.6064 112.769 75.9339 113.25 76.222L113.092 77.2752L114.603 77.9584L115.297 77.1533C115.832 77.3249 116.381 77.4515 116.938 77.5319L117.196 78.5676L118.85 78.6242L119.177 77.6102C119.738 77.5677 120.295 77.4775 120.84 77.3404L121.473 78.2108L123.027 77.632L122.944 76.5745C123.442 76.3214 123.919 76.0304 124.372 75.7042L125.288 76.2525L126.502 75.1254L126.017 74.1723C126.383 73.7495 126.71 73.2952 126.995 72.8146L128.051 72.9712L128.741 71.4655L127.929 70.7779C128.103 70.2459 128.23 69.6999 128.309 69.146L129.352 68.8849ZM118.178 74.2245C116.885 74.1774 115.635 73.7496 114.586 72.9949C113.537 72.2402 112.735 71.1926 112.283 69.9843C111.83 68.7759 111.747 67.461 112.043 66.2055C112.34 64.95 113.003 63.8102 113.948 62.93C114.894 62.0497 116.08 61.4685 117.356 61.2596C118.633 61.0508 119.943 61.2237 121.121 61.7564C122.299 62.2892 123.293 63.1581 123.976 64.2533C124.66 65.3485 125.002 66.6209 124.961 67.9101C124.933 68.7693 124.736 69.6147 124.379 70.3976C124.023 71.1806 123.515 71.8857 122.885 72.4724C122.255 73.0591 121.515 73.5159 120.707 73.8166C119.899 74.1173 119.039 74.2559 118.178 74.2245Z" fill="#0099FF"/>
<path opacity="0.3" d="M136.24 99.1645L136.362 98.0505L135.69 97.7807C135.689 97.4015 135.657 97.0231 135.594 96.6492L136.2 96.2619L135.891 95.187H135.166C135.023 94.8374 134.849 94.501 134.647 94.1817L135.057 93.5899L134.358 92.7195L133.691 92.998C133.42 92.7311 133.128 92.4866 132.818 92.2669L132.979 91.5619L131.997 91.0223L131.482 91.5402C131.131 91.3962 130.769 91.2812 130.399 91.1964L130.277 90.487L129.164 90.3608L128.889 91.031C128.51 91.0328 128.132 91.0677 127.759 91.1355L127.37 90.5175L126.292 90.8352V91.5576C125.941 91.702 125.604 91.8767 125.284 92.0798L124.69 91.6446L123.817 92.3409L124.096 93.0067C123.83 93.2768 123.586 93.5679 123.367 93.8771L122.66 93.7204L122.123 94.6996L122.639 95.2087C122.492 95.5593 122.377 95.9218 122.294 96.2923L121.578 96.4098L121.46 97.5196L122.128 97.7981C122.128 98.1745 122.162 98.5502 122.228 98.9208L121.613 99.3081L121.927 100.383H122.656C122.802 100.731 122.977 101.066 123.18 101.384L122.743 101.976L123.442 102.846L124.118 102.563C124.387 102.831 124.679 103.074 124.991 103.29L124.838 104.008L125.821 104.543L126.331 104.034C126.682 104.175 127.044 104.287 127.414 104.369L127.54 105.083L128.653 105.205L128.924 104.539C129.31 104.538 129.696 104.506 130.076 104.443L130.465 105.057L131.539 104.744V104.021C131.89 103.874 132.228 103.699 132.551 103.499L133.136 103.934L134.009 103.233L133.726 102.568C133.994 102.298 134.241 102.007 134.463 101.697L135.166 101.854L135.707 100.875L135.192 100.37C135.332 100.02 135.445 99.6587 135.528 99.2907L136.24 99.1645ZM130.622 98.7294C130.437 99.0663 130.157 99.341 129.815 99.5188C129.474 99.6966 129.087 99.7695 128.704 99.7282C128.321 99.6869 127.959 99.5333 127.664 99.2868C127.369 99.0403 127.153 98.712 127.045 98.3435C126.937 97.975 126.941 97.5828 127.057 97.2165C127.172 96.8502 127.394 96.5263 127.694 96.2857C127.994 96.0452 128.359 95.8988 128.743 95.8651C129.127 95.8314 129.512 95.912 129.849 96.0965C130.301 96.3446 130.636 96.7607 130.78 97.254C130.925 97.7474 130.868 98.2778 130.622 98.7294Z" fill="#407BFF"/>
<path d="M142.425 80.3562L141.115 79.4597C140.986 78.9937 140.811 78.5417 140.591 78.1107L140.923 76.8051L139.037 74.7902L137.728 75.0339C137.312 74.7874 136.874 74.5819 136.418 74.4203L135.611 73.0626L132.848 72.9712L131.949 74.2767C131.481 74.4032 131.027 74.5783 130.595 74.799L129.286 74.4639L127.265 76.3482L127.509 77.6537C127.259 78.066 127.052 78.5036 126.894 78.9593L125.536 79.7644L125.44 82.519L126.75 83.4155C126.877 83.885 127.052 84.34 127.274 84.7733L126.942 86.0788L128.828 88.0937L130.137 87.8544C130.553 88.1005 130.991 88.306 131.447 88.4679L132.25 89.8214L135.017 89.9171L135.912 88.6116C136.384 88.4839 136.842 88.3089 137.278 88.0893L138.588 88.4201L140.609 86.5401L140.369 85.2346C140.617 84.8208 140.823 84.3835 140.984 83.929L142.342 83.1239L142.425 80.3562ZM133.812 84.5426C133.198 84.5216 132.604 84.3194 132.105 83.9616C131.606 83.6039 131.224 83.1066 131.009 82.5327C130.793 81.9587 130.753 81.334 130.894 80.7373C131.034 80.1407 131.349 79.5991 131.798 79.1809C132.248 78.7627 132.811 78.4868 133.418 78.388C134.025 78.2892 134.647 78.372 135.207 78.6259C135.766 78.8798 136.237 79.2934 136.561 79.8144C136.885 80.3355 137.046 80.9405 137.025 81.5529C136.995 82.3737 136.641 83.1493 136.038 83.7097C135.436 84.2701 134.636 84.5697 133.812 84.5426Z" fill="white"/>
<path d="M151.901 58.3663L152.128 57.8223C152.282 57.7356 152.429 57.6351 152.565 57.5221H153.071L153.665 56.6517L153.473 56.1861C153.546 56.031 153.605 55.8692 153.647 55.703L154.084 55.3026L153.9 54.28L153.35 54.0537C153.264 53.8994 153.163 53.7536 153.049 53.6185V53.1137L152.198 52.5218L151.727 52.7177C151.554 52.6572 151.376 52.6163 151.194 52.5958L150.792 52.1606L149.771 52.3434L149.54 52.8917C149.378 52.9755 149.224 53.0746 149.081 53.1877H148.579L147.986 54.058L148.178 54.5237C148.119 54.6961 148.078 54.874 148.056 55.0546L147.619 55.4593L147.802 56.4776L148.352 56.7039C148.436 56.859 148.535 57.0049 148.649 57.1391V57.6396L149.522 58.2314L149.989 58.0399C150.164 58.0965 150.344 58.1359 150.526 58.1574L150.928 58.5926L151.901 58.3663ZM149.719 55.5463C149.677 55.3193 149.705 55.0851 149.797 54.8735C149.889 54.6618 150.042 54.4822 150.237 54.3574C150.432 54.2326 150.659 54.1682 150.891 54.1723C151.122 54.1764 151.347 54.2488 151.537 54.3804C151.727 54.5121 151.874 54.697 151.958 54.9118C152.043 55.1265 152.062 55.3615 152.013 55.587C151.963 55.8124 151.848 56.0182 151.681 56.1783C151.515 56.3384 151.304 56.4456 151.076 56.4863C150.771 56.5397 150.458 56.4708 150.203 56.2948C149.949 56.1188 149.775 55.8498 149.719 55.5463Z" fill="#0099FF"/>
<path d="M139.945 55.4812L139.609 55.1984C140.33 54.3077 141.22 53.5682 142.228 53.0225L142.434 53.4054C141.474 53.9261 140.629 54.6317 139.945 55.4812Z" fill="#0099FF"/>
<path d="M143.429 53.0051L143.259 52.6047C144.871 51.9064 146.633 51.6249 148.383 51.7866L148.34 52.2217C146.663 52.0642 144.973 52.3337 143.429 53.0051Z" fill="#0099FF"/>
<path d="M142.604 56.0167L142.246 55.773C143.298 54.3572 144.828 53.3693 146.554 52.9922L146.637 53.4274C145.024 53.7786 143.592 54.6979 142.604 56.0167Z" fill="#0099FF"/>
<path d="M113.638 97.9156C113.579 97.9138 113.522 97.8888 113.481 97.846L112.569 96.906C112.104 96.864 111.643 96.7795 111.194 96.6536L109.766 97.2802C109.735 97.2974 109.7 97.3064 109.664 97.3064C109.628 97.3064 109.593 97.2974 109.561 97.2802L107.169 95.7005C107.138 95.6803 107.113 95.6524 107.097 95.6196C107.08 95.5868 107.072 95.5502 107.073 95.5134V93.9642C106.781 93.6001 106.524 93.2097 106.305 92.7979L105.078 92.3279C105.044 92.3146 105.014 92.2929 104.99 92.2647C104.966 92.2366 104.95 92.2029 104.943 92.1669L104.376 89.3643C104.368 89.3285 104.37 89.2914 104.381 89.2564C104.391 89.2214 104.411 89.1897 104.437 89.1641L105.38 88.2546C105.425 87.7913 105.509 87.3327 105.633 86.8838L105.004 85.4608C104.987 85.4294 104.978 85.3942 104.978 85.3585C104.978 85.3228 104.987 85.2876 105.004 85.2562L106.589 82.8714C106.608 82.84 106.636 82.8146 106.669 82.7977C106.702 82.7808 106.739 82.7732 106.776 82.7757L108.33 82.7975C108.694 82.5049 109.086 82.2484 109.5 82.0315L109.976 80.8087C109.989 80.7748 110.01 80.7446 110.037 80.721C110.065 80.6974 110.098 80.6811 110.133 80.6738L112.944 80.108C112.98 80.1001 113.017 80.1016 113.053 80.1123C113.088 80.1229 113.12 80.1425 113.145 80.169L114.057 81.109C114.524 81.1514 114.985 81.2359 115.437 81.3614L116.86 80.7347C116.892 80.7176 116.928 80.7086 116.964 80.7086C117.001 80.7086 117.037 80.7176 117.069 80.7347L119.457 82.3144C119.487 82.3356 119.512 82.3635 119.529 82.396C119.547 82.4285 119.556 82.4647 119.557 82.5015L119.531 84.0508C119.824 84.4148 120.083 84.8052 120.303 85.2171L121.526 85.6914C121.56 85.7039 121.59 85.7249 121.614 85.7523C121.637 85.7797 121.654 85.8127 121.661 85.8481L122.233 88.6506C122.24 88.6864 122.237 88.7233 122.227 88.7582C122.216 88.793 122.197 88.8248 122.172 88.8508L121.225 89.7647C121.181 90.2268 121.096 90.684 120.971 91.1312L121.6 92.5542C121.617 92.5863 121.626 92.6222 121.626 92.6586C121.626 92.6951 121.617 92.7309 121.6 92.7631L120.037 95.1261C120.017 95.1557 119.989 95.1798 119.957 95.1965C119.925 95.2132 119.89 95.2219 119.854 95.2218L118.296 95.2001C117.93 95.4887 117.54 95.7449 117.13 95.966L116.654 97.1889C116.641 97.2233 116.62 97.2539 116.591 97.2775C116.563 97.3011 116.529 97.3171 116.493 97.3238L113.682 97.9156H113.638ZM111.181 96.1749C111.201 96.1709 111.222 96.1709 111.242 96.1749C111.713 96.3118 112.197 96.4007 112.687 96.4403C112.739 96.4465 112.788 96.4694 112.826 96.5056L113.699 97.4195L116.275 96.9016L116.737 95.7092C116.759 95.661 116.796 95.6213 116.842 95.5961C117.278 95.3713 117.689 95.1015 118.069 94.791C118.109 94.7573 118.16 94.7401 118.213 94.7431L119.727 94.7649L121.176 92.589L120.565 91.2051C120.548 91.1573 120.548 91.105 120.565 91.0572C120.7 90.5867 120.79 90.1043 120.832 89.6167C120.836 89.564 120.859 89.5146 120.897 89.4775L121.814 88.6071L121.294 86.0396L120.103 85.5783C120.052 85.5597 120.009 85.5223 119.985 85.4738C119.758 85.0397 119.488 84.63 119.177 84.251C119.146 84.2112 119.129 84.1622 119.129 84.1117V82.5973L116.947 81.1525L115.563 81.7617C115.514 81.7793 115.46 81.7793 115.41 81.7617C114.937 81.6255 114.452 81.5366 113.961 81.4963C113.909 81.4901 113.86 81.4672 113.822 81.431L112.949 80.5171L110.373 81.0393L109.915 82.2491C109.897 82.299 109.861 82.3407 109.814 82.3666C109.377 82.5908 108.964 82.8607 108.584 83.1717C108.565 83.1887 108.543 83.2017 108.519 83.2099C108.495 83.2181 108.469 83.2214 108.444 83.2196L106.929 83.1978L105.476 85.3737L106.087 86.7576C106.101 86.7868 106.108 86.8188 106.108 86.8512C106.108 86.8835 106.101 86.9155 106.087 86.9447C105.957 87.4041 105.873 87.8748 105.834 88.3504C105.83 88.4032 105.806 88.4527 105.768 88.4896L104.852 89.36L105.375 91.9275L106.563 92.3888C106.616 92.4108 106.659 92.4509 106.685 92.502C106.91 92.9332 107.179 93.3401 107.488 93.7161C107.52 93.7552 107.537 93.8047 107.536 93.8554V95.3698L109.718 96.8146L111.106 96.2054C111.129 96.1909 111.154 96.1806 111.181 96.1749ZM113.324 94.7649C112.273 94.764 111.243 94.4792 110.341 93.9409C109.44 93.4026 108.702 92.6309 108.205 91.7078C107.709 90.7847 107.472 89.7447 107.521 88.6983C107.57 87.652 107.903 86.6384 108.483 85.7654C109.038 84.9278 109.802 84.2483 110.7 83.7932C111.597 83.3381 112.598 83.1231 113.604 83.1691C114.61 83.2152 115.587 83.5208 116.439 84.056C117.291 84.5912 117.989 85.3377 118.465 86.2224C118.941 87.1072 119.178 88.1 119.154 89.1037C119.13 90.1074 118.845 91.0876 118.327 91.9486C117.808 92.8095 117.075 93.5216 116.198 94.0152C115.321 94.5089 114.331 94.7672 113.324 94.7649ZM108.85 86.0047C108.262 86.8885 107.951 87.9262 107.955 88.9864C107.959 90.0467 108.278 91.082 108.872 91.9615C109.466 92.8409 110.308 93.525 111.292 93.9273C112.276 94.3295 113.358 94.4319 114.4 94.2214C115.442 94.0108 116.399 93.4969 117.148 92.7446C117.897 91.9923 118.406 91.0353 118.61 89.9947C118.814 88.9541 118.704 87.8765 118.294 86.8983C117.883 85.9201 117.191 85.0852 116.305 84.499C115.717 84.1068 115.058 83.8346 114.364 83.698C113.67 83.5614 112.956 83.5631 112.263 83.7031C111.57 83.8431 110.911 84.1185 110.325 84.5136C109.74 84.9086 109.238 85.4154 108.85 86.0047Z" fill="white"/>
<path d="M194.769 118.651L188.412 117.795L187.916 117.729L187.849 118.224L186.537 128.025L174.31 126.383L175.623 116.577L175.69 116.082L175.195 116.015L148.064 112.366L149.658 100.451L181.413 71.3046L193.903 72.9824L189.438 106.348L189.372 106.844L189.867 106.91L196.225 107.766L194.769 118.651ZM161.784 102.302L160.989 103.025L162.054 103.168L176.65 105.13L177.146 105.197L177.212 104.701L179.534 87.3636L179.716 86.0061L178.703 86.9272L161.784 102.302Z" fill="white" stroke="#263238"/>
<path d="M182.95 128.265H182.893C182.836 128.254 182.786 128.222 182.753 128.175C182.721 128.127 182.708 128.069 182.718 128.012L192.932 72.3356C192.944 72.2796 192.977 72.2303 193.024 72.1979C193.071 72.1655 193.129 72.1525 193.186 72.1615C193.242 72.1721 193.292 72.2045 193.325 72.2518C193.358 72.2991 193.37 72.3574 193.36 72.4139L183.168 128.086C183.158 128.137 183.131 128.182 183.091 128.215C183.051 128.247 183.001 128.265 182.95 128.265Z" fill="#263238"/>
<path d="M191.986 73.2715C191.982 73.3662 191.941 73.4556 191.872 73.52C191.802 73.5845 191.71 73.6188 191.615 73.6153C191.52 73.6119 191.43 73.5709 191.365 73.5016C191.301 73.4322 191.266 73.34 191.27 73.2454C191.273 73.1508 191.314 73.0614 191.384 72.9969C191.453 72.9324 191.546 72.8981 191.641 72.9016C191.736 72.9051 191.825 72.946 191.89 73.0154C191.955 73.0847 191.989 73.1769 191.986 73.2715Z" fill="#263238"/>
<path d="M190.531 80.7998C190.528 80.8703 190.505 80.9385 190.463 80.9956C190.422 81.0528 190.364 81.0964 190.298 81.121C190.232 81.1456 190.16 81.15 190.091 81.1337C190.022 81.1174 189.959 81.0811 189.911 81.0295C189.863 80.9778 189.831 80.913 189.82 80.8434C189.809 80.7737 189.818 80.7023 189.848 80.6381C189.877 80.574 189.925 80.5199 189.985 80.4829C190.046 80.4458 190.115 80.4274 190.186 80.4299C190.233 80.4316 190.279 80.4425 190.322 80.462C190.365 80.4815 190.404 80.5092 190.436 80.5436C190.468 80.578 190.492 80.6183 190.509 80.6622C190.525 80.7062 190.533 80.7529 190.531 80.7998Z" fill="#263238"/>
<path d="M189.077 88.3418C189.076 88.3887 189.065 88.4348 189.045 88.4774C189.026 88.5201 188.998 88.5585 188.963 88.5904C188.929 88.6223 188.889 88.6472 188.844 88.6635C188.8 88.6799 188.753 88.6874 188.706 88.6856C188.66 88.6845 188.613 88.6741 188.571 88.6551C188.528 88.636 188.489 88.6087 188.457 88.5747C188.425 88.5407 188.4 88.5007 188.384 88.457C188.367 88.4133 188.36 88.3667 188.362 88.3201C188.363 88.2728 188.373 88.2263 188.393 88.1831C188.412 88.14 188.44 88.1011 188.474 88.0687C188.509 88.0363 188.549 88.0111 188.594 87.9944C188.638 87.9778 188.685 87.9702 188.733 87.9719C188.827 87.9764 188.916 88.0177 188.981 88.0868C189.045 88.1559 189.08 88.2475 189.077 88.3418Z" fill="#263238"/>
<path d="M186.215 96.175C186.205 96.2623 186.163 96.343 186.098 96.4015C186.032 96.4601 185.947 96.4925 185.859 96.4925C185.771 96.4925 185.686 96.4601 185.62 96.4015C185.555 96.343 185.513 96.2623 185.503 96.175C185.498 96.1251 185.503 96.0746 185.518 96.0269C185.533 95.9791 185.559 95.935 185.592 95.8976C185.626 95.8603 185.667 95.8303 185.713 95.8099C185.759 95.7894 185.809 95.7788 185.859 95.7788C185.909 95.7788 185.959 95.7894 186.005 95.8099C186.051 95.8303 186.092 95.8603 186.126 95.8976C186.159 95.935 186.184 95.9791 186.2 96.0269C186.215 96.0746 186.22 96.1251 186.215 96.175Z" fill="#263238"/>
<path d="M186.167 103.386C186.166 103.433 186.155 103.479 186.136 103.522C186.116 103.565 186.089 103.604 186.054 103.636C186.019 103.668 185.979 103.693 185.934 103.709C185.89 103.725 185.843 103.732 185.796 103.73C185.725 103.727 185.657 103.703 185.599 103.662C185.542 103.621 185.498 103.563 185.474 103.497C185.449 103.431 185.445 103.359 185.461 103.291C185.477 103.222 185.514 103.16 185.565 103.112C185.617 103.064 185.682 103.032 185.752 103.021C185.822 103.009 185.894 103.019 185.958 103.048C186.022 103.078 186.076 103.125 186.114 103.186C186.151 103.246 186.169 103.315 186.167 103.386Z" fill="#263238"/>
<path d="M184.714 110.915C184.712 110.985 184.689 111.054 184.648 111.112C184.607 111.169 184.55 111.214 184.484 111.239C184.417 111.264 184.345 111.269 184.276 111.253C184.207 111.238 184.144 111.202 184.095 111.15C184.047 111.099 184.014 111.034 184.003 110.964C183.991 110.894 184.001 110.823 184.03 110.758C184.059 110.694 184.107 110.639 184.168 110.602C184.228 110.565 184.298 110.546 184.369 110.549C184.463 110.552 184.552 110.593 184.617 110.661C184.681 110.73 184.716 110.821 184.714 110.915Z" fill="#263238"/>
<path d="M183.259 118.443C183.256 118.538 183.215 118.628 183.145 118.693C183.076 118.758 182.983 118.794 182.888 118.791C182.841 118.79 182.795 118.779 182.752 118.759C182.709 118.74 182.671 118.712 182.639 118.678C182.607 118.643 182.582 118.603 182.565 118.559C182.549 118.515 182.541 118.468 182.543 118.421C182.545 118.374 182.555 118.328 182.575 118.286C182.594 118.243 182.622 118.204 182.656 118.172C182.69 118.14 182.73 118.115 182.774 118.098C182.818 118.082 182.865 118.074 182.912 118.075C182.959 118.077 183.005 118.087 183.048 118.107C183.091 118.126 183.13 118.153 183.162 118.188C183.194 118.222 183.219 118.262 183.236 118.306C183.253 118.35 183.26 118.396 183.259 118.443Z" fill="#263238"/>
<path d="M181.802 125.976C181.799 126.047 181.775 126.115 181.734 126.172C181.692 126.229 181.635 126.273 181.569 126.297C181.502 126.322 181.43 126.326 181.361 126.31C181.292 126.294 181.23 126.257 181.182 126.206C181.134 126.154 181.102 126.089 181.091 126.02C181.079 125.95 181.089 125.879 181.118 125.814C181.148 125.75 181.196 125.696 181.256 125.659C181.316 125.622 181.386 125.604 181.457 125.606C181.504 125.607 181.55 125.618 181.593 125.637C181.637 125.656 181.675 125.684 181.707 125.719C181.74 125.753 181.764 125.794 181.781 125.838C181.797 125.882 181.804 125.929 181.802 125.976Z" fill="#263238"/>
<path d="M185.857 96.3709C185.807 96.3709 185.76 96.354 185.722 96.3231C185.683 96.2922 185.657 96.2491 185.647 96.2012C185.641 96.1731 185.64 96.1441 185.645 96.1158C185.65 96.0875 185.66 96.0604 185.675 96.0361C185.691 96.0119 185.711 95.9909 185.735 95.9744C185.758 95.9579 185.785 95.9462 185.813 95.94L186.896 95.7094C186.924 95.703 186.953 95.7024 186.982 95.7075C187.011 95.7127 187.038 95.7234 187.062 95.7393C187.087 95.7551 187.108 95.7756 187.124 95.7996C187.14 95.8236 187.152 95.8507 187.157 95.8791C187.163 95.9071 187.163 95.936 187.158 95.964C187.152 95.9921 187.141 96.0188 187.126 96.0427C187.11 96.0665 187.089 96.087 187.066 96.103C187.042 96.119 187.015 96.1302 186.987 96.1359L185.905 96.3665L185.857 96.3709Z" fill="#263238"/>
<path d="M189.476 92.3628C188.961 93.6943 188.523 95.0543 188.166 96.4361C187.839 97.9723 187.821 101.41 187.821 101.41" fill="#263238"/>
<path d="M187.821 101.628C187.763 101.626 187.708 101.602 187.667 101.56C187.627 101.519 187.604 101.464 187.603 101.406C187.603 101.267 187.629 97.9246 187.956 96.3928C188.311 94.999 188.749 93.6272 189.266 92.2847C189.274 92.256 189.289 92.2295 189.308 92.2067C189.328 92.184 189.352 92.1654 189.379 92.1523C189.406 92.1392 189.435 92.1318 189.465 92.1306C189.495 92.1293 189.525 92.1342 189.553 92.145C189.581 92.1559 189.607 92.1723 189.628 92.1934C189.649 92.2144 189.666 92.2397 189.677 92.2675C189.688 92.2953 189.694 92.3251 189.693 92.355C189.692 92.3849 189.684 92.4143 189.672 92.4413C189.157 93.7626 188.72 95.1125 188.362 96.4842C188.043 97.9812 188.022 101.376 188.017 101.41C188.017 101.465 187.998 101.517 187.961 101.557C187.925 101.597 187.875 101.623 187.821 101.628Z" fill="#263238"/>
<path d="M108.012 139.188C108.618 129.44 107.505 111.715 125.886 114.065C145.585 116.576 139.95 139.545 139.95 139.545L108.012 139.188Z" fill="#263238"/>
<path d="M120.697 133.331C125.128 133.331 128.719 129.75 128.719 125.332C128.719 120.915 125.128 117.333 120.697 117.333C116.266 117.333 112.674 120.915 112.674 125.332C112.674 129.75 116.266 133.331 120.697 133.331Z" fill="white"/>
<path d="M121.753 117.347C117.951 116.702 113.896 119.492 113.49 122.321L128.554 123.705C128.021 120.48 124.765 117.86 121.753 117.347Z" fill="#263238"/>
<path d="M126.838 125.132C126.729 127.225 125.585 128.866 124.285 128.796C122.984 128.726 122.015 126.981 122.102 124.879C122.189 122.777 123.355 121.145 124.656 121.215C125.956 121.285 126.943 123.043 126.838 125.132Z" fill="#263238"/>
<path d="M120.697 133.766C119.024 133.766 117.388 133.271 115.997 132.345C114.606 131.418 113.521 130.101 112.881 128.56C112.241 127.019 112.073 125.323 112.4 123.687C112.726 122.051 113.532 120.548 114.715 119.369C115.898 118.189 117.405 117.386 119.046 117.06C120.687 116.735 122.388 116.902 123.934 117.54C125.48 118.179 126.801 119.26 127.73 120.647C128.66 122.034 129.156 123.664 129.156 125.332C129.154 127.568 128.262 129.712 126.676 131.293C125.09 132.874 122.939 133.764 120.697 133.766ZM120.697 117.773C119.196 117.773 117.729 118.217 116.481 119.048C115.234 119.879 114.261 121.061 113.687 122.443C113.113 123.825 112.963 125.346 113.256 126.814C113.549 128.281 114.272 129.629 115.334 130.686C116.395 131.744 117.747 132.464 119.219 132.755C120.691 133.047 122.217 132.896 123.603 132.323C124.989 131.75 126.173 130.78 127.007 129.535C127.84 128.291 128.284 126.828 128.283 125.332C128.281 123.327 127.48 121.405 126.058 119.988C124.636 118.571 122.708 117.774 120.697 117.773Z" fill="#0099FF"/>
<path opacity="0.3" d="M137.712 138.944H137.659C137.631 138.938 137.605 138.927 137.581 138.91C137.558 138.893 137.538 138.872 137.523 138.848C137.508 138.824 137.498 138.797 137.493 138.768C137.489 138.74 137.491 138.711 137.498 138.683C137.498 138.627 138.903 132.726 137.458 126.759C137.444 126.702 137.454 126.641 137.485 126.59C137.516 126.54 137.566 126.503 137.624 126.49C137.682 126.476 137.743 126.485 137.794 126.516C137.845 126.547 137.881 126.597 137.895 126.655C139.366 132.747 137.947 138.727 137.934 138.783C137.921 138.832 137.892 138.874 137.851 138.903C137.811 138.933 137.762 138.947 137.712 138.944Z" fill="white"/>
<path opacity="0.3" d="M136.494 123.487C136.452 123.486 136.411 123.474 136.376 123.452C136.341 123.43 136.312 123.398 136.293 123.361C135.751 122.165 135.055 121.045 134.224 120.027C134.188 119.983 134.171 119.926 134.177 119.869C134.183 119.812 134.211 119.759 134.255 119.722C134.277 119.704 134.303 119.69 134.331 119.682C134.358 119.673 134.387 119.67 134.416 119.673C134.445 119.676 134.473 119.684 134.499 119.698C134.524 119.712 134.547 119.73 134.565 119.753C135.416 120.8 136.131 121.951 136.691 123.178C136.703 123.203 136.71 123.231 136.712 123.26C136.713 123.288 136.709 123.317 136.699 123.343C136.689 123.37 136.674 123.395 136.655 123.416C136.635 123.437 136.612 123.453 136.586 123.465C136.557 123.478 136.526 123.486 136.494 123.487Z" fill="white"/>
<path d="M67.104 184.917H66.9425C66.3637 184.901 65.815 184.656 65.4172 184.237C65.0194 183.817 64.805 183.257 64.8212 182.68C64.8374 182.103 65.0829 181.556 65.5036 181.159C65.9244 180.763 66.4859 180.549 67.0648 180.565H67.104C68.3655 180.565 71.3992 179.038 77.7459 169.063C77.9143 168.799 78.1383 168.573 78.4023 168.403C78.6663 168.232 78.9642 168.12 79.2756 168.075C79.5869 168.03 79.9044 168.053 80.2061 168.142C80.5079 168.23 80.7869 168.383 81.0239 168.589C86.0081 172.861 91.444 176.579 97.2355 179.677C97.5035 179.799 97.7441 179.973 97.9427 180.19C98.1414 180.407 98.294 180.661 98.3914 180.938C98.4889 181.215 98.5291 181.509 98.5096 181.802C98.4902 182.095 98.4115 182.381 98.2783 182.643C98.1451 182.904 97.9601 183.137 97.7345 183.325C97.5089 183.514 97.2474 183.655 96.9656 183.74C96.6839 183.826 96.3878 183.853 96.0951 183.821C95.8024 183.789 95.5192 183.699 95.2625 183.555C89.8799 180.703 84.792 177.33 80.0724 173.485C74.7515 181.47 70.8055 184.917 67.104 184.917Z" fill="#263238"/>
<path d="M80.6084 168.197H80.4207C80.0777 168.148 79.7684 167.965 79.5606 167.688C79.3527 167.412 79.2634 167.064 79.312 166.722C79.6219 164.546 79.2378 156.439 76.4835 150.129C76.3613 149.85 76.3407 149.537 76.4252 149.245C76.5097 148.952 76.6939 148.699 76.9462 148.527C82.9262 144.467 95.6632 143.98 96.2044 143.962C96.3764 143.956 96.5478 143.985 96.7089 144.045C96.8699 144.105 97.0175 144.197 97.1432 144.314C97.2688 144.431 97.3701 144.572 97.4412 144.728C97.5123 144.884 97.5518 145.053 97.5576 145.224C97.5633 145.396 97.5351 145.567 97.4746 145.727C97.4141 145.888 97.3224 146.035 97.2049 146.16C97.0874 146.285 96.9462 146.386 96.7895 146.457C96.6328 146.528 96.4637 146.568 96.2917 146.573C96.1739 146.573 85.0388 147.008 79.3207 150.142C81.7564 156.426 82.3107 164.255 81.9048 167.088C81.8578 167.397 81.701 167.679 81.4631 167.882C81.2252 168.086 80.9219 168.198 80.6084 168.197Z" fill="#263238"/>
<path d="M82.8087 166.509C81.9357 164.459 78.0073 164.69 75.7069 166.448C74.476 167.384 72.8086 170.208 72.6514 171.235C72.599 171.479 72.6069 171.732 72.6743 171.972C72.7417 172.213 72.8667 172.433 73.0384 172.615C73.2102 172.796 73.4236 172.933 73.6604 173.015C73.8971 173.096 74.15 173.118 74.3974 173.08C75.9033 172.95 77.968 170.769 77.968 170.769C76.593 172.114 78.3696 173.063 81.0235 171.117C82.4726 170.034 83.7821 168.802 82.8087 166.509Z" fill="#0099FF"/>
<path d="M157.886 139.763C157.866 139.767 157.845 139.767 157.825 139.763C157.797 139.755 157.771 139.742 157.749 139.725C157.726 139.707 157.707 139.685 157.693 139.659C157.679 139.634 157.671 139.607 157.668 139.578C157.665 139.549 157.668 139.52 157.677 139.493C158.257 137.474 158.89 136.242 159.724 135.576C159.593 135.108 159.618 134.611 159.794 134.158C159.997 133.629 160.356 133.174 160.824 132.852C160.697 132.715 160.607 132.548 160.562 132.367C160.517 132.186 160.518 131.997 160.566 131.816C160.724 131.271 161.051 130.79 161.501 130.441C161.339 130.261 161.25 130.026 161.252 129.784C161.252 128.479 163.657 126.512 166.385 126.137C166.443 126.129 166.502 126.144 166.548 126.18C166.595 126.215 166.626 126.267 166.634 126.325C166.642 126.382 166.627 126.441 166.591 126.487C166.556 126.534 166.504 126.564 166.446 126.573C163.853 126.925 161.68 128.796 161.688 129.784C161.687 129.931 161.744 130.073 161.845 130.18C162.433 129.783 163.093 129.507 163.789 129.367C164.484 129.227 165.201 129.227 165.896 129.366C167.236 129.623 167.782 129.906 167.721 130.311C167.598 131.072 164.748 131.233 162.836 131.007C162.494 130.976 162.16 130.88 161.854 130.724C161.443 131.016 161.136 131.433 160.981 131.912C160.944 132.039 160.944 132.174 160.982 132.301C161.02 132.427 161.094 132.54 161.195 132.626C162.007 132.191 163.146 132.034 164.652 132.365C166.629 132.8 166.704 133.039 166.752 133.183C166.767 133.234 166.768 133.288 166.755 133.339C166.742 133.39 166.715 133.437 166.677 133.474C166.263 133.91 163.229 133.705 161.706 133.331C161.522 133.289 161.344 133.223 161.178 133.135C160.727 133.408 160.38 133.823 160.191 134.314C160.065 134.632 160.03 134.979 160.091 135.315C160.168 135.269 160.248 135.227 160.331 135.189C161.234 134.754 162.326 134.832 163.674 135.407C164.547 135.785 164.984 136.125 165.027 136.469C165.029 136.557 165.007 136.644 164.963 136.72C164.92 136.797 164.856 136.86 164.779 136.904C164.111 137.339 161.78 137.278 160.566 136.634C160.287 136.483 160.055 136.259 159.894 135.985C159.183 136.638 158.607 137.8 158.083 139.624C158.067 139.663 158.04 139.697 158.005 139.722C157.97 139.747 157.929 139.761 157.886 139.763ZM160.252 135.703C160.374 135.928 160.559 136.112 160.785 136.234C161.771 136.756 163.709 136.873 164.434 136.582C164.582 136.521 164.604 136.473 164.604 136.473C164.604 136.473 164.582 136.229 163.513 135.772C162.291 135.25 161.33 135.176 160.532 135.546C160.435 135.592 160.342 135.645 160.252 135.703ZM161.71 132.843L161.819 132.874C163.241 133.201 164.703 133.311 166.158 133.2C165.642 133.01 165.11 132.864 164.569 132.765C163.629 132.511 162.635 132.538 161.71 132.843ZM162.26 130.398C162.462 130.47 162.671 130.517 162.884 130.537C165.067 130.794 166.983 130.494 167.249 130.219C167.175 130.154 166.883 129.967 165.8 129.762C164.582 129.52 163.317 129.747 162.26 130.398Z" fill="#263238"/>
<path d="M101.063 184.19C101.351 184.099 101.255 183.82 100.932 183.82H95.0219C83.769 182.632 75.9077 184.225 80.862 184.599C85.8162 184.974 80.5128 184.895 76.8942 186.262C73.2757 187.628 103.804 187.972 106.576 186.262C109.125 184.686 97.0735 185.465 101.063 184.19Z" fill="#263238"/>
<path d="M143.377 185.927L91.9577 184.225L89.8232 134.519L150.544 135.872L143.377 185.927Z" fill="#0099FF"/>
<path d="M108.012 184.974C107.957 184.974 107.904 184.953 107.864 184.916C107.823 184.879 107.798 184.828 107.794 184.773L103.673 134.849C103.67 134.792 103.689 134.735 103.726 134.691C103.763 134.648 103.817 134.62 103.874 134.614C103.932 134.612 103.988 134.631 104.031 134.668C104.075 134.705 104.103 134.758 104.11 134.815L108.252 184.739C108.255 184.767 108.251 184.796 108.242 184.823C108.234 184.851 108.219 184.876 108.201 184.898C108.182 184.92 108.159 184.937 108.134 184.95C108.108 184.963 108.08 184.971 108.051 184.974H108.012Z" fill="#263238"/>
<path d="M143.378 185.927L157.197 183.829L161.549 137.609L150.545 135.873L143.378 185.927Z" fill="#407BFF"/>
<path opacity="0.2" d="M143.378 185.927L157.197 183.829L161.549 137.609L150.545 135.873L143.378 185.927Z" fill="#428DFF"/>
<path d="M96.3488 174.647L95.083 145.111C95.0518 144.382 95.171 143.653 95.4333 142.971C95.6957 142.29 96.0955 141.669 96.6081 141.147C97.1207 140.625 97.7353 140.214 98.4137 139.938C99.0921 139.663 99.82 139.529 100.552 139.545L138.99 140.416C139.747 140.433 140.492 140.609 141.175 140.934C141.858 141.259 142.465 141.725 142.954 142.301C143.444 142.876 143.806 143.549 144.015 144.274C144.225 145 144.278 145.761 144.171 146.508L139.911 176.248C139.727 177.551 139.067 178.74 138.058 179.587C137.048 180.434 135.761 180.88 134.442 180.839L101.534 179.752C100.184 179.71 98.8983 179.161 97.9366 178.214C96.9748 177.267 96.4077 175.993 96.3488 174.647Z" fill="#263238"/>
<path d="M100.505 148.61L106.45 148.797L106.402 150.324L102.679 150.207L102.644 151.347L106.096 151.456L106.048 152.918L102.596 152.805L102.552 154.219L106.38 154.341L106.328 155.96L100.273 155.769L100.505 148.61Z" fill="white"/>
<path d="M107.554 155.999L107.781 148.84L111.482 148.958C112.013 148.955 112.541 149.031 113.049 149.184C113.409 149.304 113.718 149.544 113.922 149.863C114.074 150.095 114.176 150.356 114.222 150.63C114.268 150.903 114.257 151.183 114.19 151.452C114.123 151.721 114.001 151.974 113.832 152.194C113.663 152.414 113.45 152.596 113.206 152.731C112.958 152.858 112.692 152.946 112.416 152.992C112.619 153.057 112.812 153.151 112.988 153.27C113.115 153.388 113.23 153.52 113.329 153.662C113.441 153.798 113.54 153.943 113.625 154.097L114.634 156.208L112.128 156.125L111.011 153.901C110.922 153.689 110.791 153.497 110.627 153.336C110.47 153.223 110.283 153.159 110.09 153.153H109.893L109.802 156.056L107.554 155.999ZM109.92 151.813L110.854 151.843C111.052 151.831 111.249 151.803 111.443 151.76C111.589 151.738 111.721 151.662 111.814 151.547C111.908 151.431 111.962 151.287 111.967 151.138C111.975 151.039 111.961 150.938 111.925 150.845C111.89 150.752 111.834 150.667 111.762 150.598C111.518 150.442 111.23 150.367 110.941 150.385L109.963 150.355L109.92 151.813Z" fill="white"/>
<path d="M115.358 156.23L115.585 149.071L119.283 149.189C119.813 149.186 120.341 149.262 120.85 149.415C121.21 149.534 121.519 149.774 121.723 150.094C121.944 150.443 122.048 150.853 122.019 151.265C122.021 151.612 121.928 151.953 121.75 152.252C121.572 152.551 121.317 152.796 121.011 152.962C120.763 153.088 120.496 153.177 120.221 153.223C120.423 153.288 120.614 153.382 120.788 153.501C120.919 153.616 121.035 153.746 121.133 153.889C121.245 154.025 121.344 154.17 121.43 154.324L122.438 156.43L119.933 156.352L118.815 154.128C118.726 153.916 118.596 153.724 118.431 153.562C118.275 153.445 118.086 153.381 117.89 153.38H117.698L117.602 156.287L115.358 156.23ZM117.72 152.044L118.658 152.07C118.857 152.062 119.054 152.036 119.248 151.991C119.393 151.97 119.524 151.893 119.614 151.778C119.712 151.664 119.766 151.519 119.767 151.369C119.776 151.27 119.763 151.17 119.729 151.076C119.694 150.983 119.638 150.898 119.566 150.829C119.323 150.669 119.032 150.594 118.741 150.616L117.768 150.586L117.72 152.044Z" fill="white"/>
<path d="M122.796 152.905C122.762 152.406 122.84 151.905 123.024 151.439C123.207 150.973 123.492 150.553 123.857 150.21C124.223 149.866 124.66 149.608 125.138 149.454C125.616 149.299 126.122 149.251 126.62 149.315C127.123 149.298 127.623 149.383 128.093 149.563C128.562 149.743 128.991 150.015 129.352 150.364C129.675 150.734 129.919 151.167 130.069 151.634C130.219 152.102 130.272 152.595 130.225 153.084C130.229 153.795 130.061 154.496 129.736 155.129C129.442 155.647 129.002 156.067 128.471 156.339C127.844 156.637 127.151 156.769 126.458 156.722C125.768 156.728 125.085 156.579 124.459 156.287C123.927 155.999 123.492 155.559 123.211 155.025C122.881 154.369 122.737 153.636 122.796 152.905ZM125.013 152.984C124.948 153.532 125.073 154.086 125.367 154.555C125.505 154.708 125.672 154.832 125.859 154.919C126.045 155.006 126.248 155.055 126.454 155.063C126.66 155.071 126.865 155.037 127.058 154.964C127.251 154.891 127.427 154.78 127.576 154.637C127.899 154.149 128.053 153.568 128.012 152.984C128.071 152.459 127.943 151.931 127.65 151.491C127.518 151.339 127.354 151.217 127.17 151.134C126.986 151.05 126.787 151.007 126.585 151.008C126.381 150.993 126.177 151.025 125.987 151.1C125.797 151.175 125.627 151.293 125.489 151.443C125.159 151.887 124.991 152.431 125.013 152.984Z" fill="white"/>
<path d="M131.348 156.756L131.575 149.593L135.272 149.711C135.802 149.71 136.33 149.786 136.839 149.937C137.198 150.059 137.506 150.298 137.712 150.616C137.932 150.965 138.036 151.375 138.009 151.787C138.011 152.135 137.918 152.477 137.74 152.776C137.563 153.076 137.307 153.322 137 153.488C136.751 153.611 136.485 153.698 136.21 153.745C136.412 153.811 136.603 153.906 136.778 154.028C136.908 154.142 137.024 154.272 137.123 154.415C137.235 154.55 137.334 154.696 137.419 154.85L138.428 156.961L135.922 156.883L134.805 154.654C134.716 154.443 134.585 154.252 134.421 154.093C134.264 153.976 134.075 153.911 133.879 153.906H133.687L133.591 156.813L131.348 156.756ZM133.709 152.566L134.648 152.596C134.846 152.588 135.043 152.562 135.237 152.518C135.381 152.494 135.512 152.418 135.604 152.304C135.707 152.183 135.761 152.028 135.756 151.869C135.766 151.771 135.753 151.671 135.718 151.579C135.683 151.486 135.627 151.402 135.555 151.334C135.312 151.173 135.022 151.098 134.731 151.121L133.757 151.09L133.709 152.566Z" fill="white"/>
<path d="M134.878 168.92C134.797 168.922 134.715 168.906 134.64 168.873C134.565 168.841 134.497 168.793 134.442 168.733L130.706 164.655L126.672 168.328C126.561 168.43 126.413 168.484 126.261 168.477C126.11 168.471 125.967 168.405 125.865 168.293L122.128 164.216L118.095 167.889C117.983 167.991 117.836 168.044 117.684 168.038C117.533 168.031 117.39 167.965 117.288 167.854L113.547 163.776L109.518 167.449C109.459 167.502 109.39 167.543 109.315 167.568C109.24 167.594 109.16 167.604 109.081 167.597C108.93 167.588 108.788 167.521 108.684 167.41L104.948 163.337L100.919 167.005C100.806 167.108 100.658 167.161 100.506 167.155C100.354 167.148 100.21 167.082 100.107 166.97C100.056 166.915 100.017 166.851 99.991 166.78C99.9654 166.71 99.954 166.635 99.9577 166.56C99.9614 166.485 99.9799 166.411 100.012 166.344C100.045 166.276 100.09 166.215 100.146 166.165L104.599 162.105C104.711 162.003 104.86 161.949 105.012 161.956C105.164 161.962 105.307 162.028 105.411 162.14L109.147 166.218L113.176 162.545C113.29 162.445 113.438 162.392 113.59 162.397C113.742 162.405 113.885 162.472 113.988 162.584L117.724 166.662L121.757 162.989C121.812 162.938 121.877 162.898 121.948 162.872C122.018 162.846 122.093 162.834 122.168 162.838C122.244 162.841 122.317 162.859 122.385 162.891C122.453 162.923 122.514 162.968 122.565 163.023L126.301 167.101L130.335 163.428C130.446 163.326 130.594 163.272 130.746 163.279C130.897 163.285 131.04 163.352 131.142 163.463L135.315 167.98C135.39 168.063 135.438 168.166 135.455 168.276C135.472 168.387 135.456 168.499 135.41 168.601C135.364 168.702 135.289 168.788 135.194 168.848C135.1 168.908 134.99 168.939 134.878 168.938V168.92Z" fill="white"/>
<path d="M65.8029 186.984L63.0704 185.683L60.6348 173.859L61.9574 172.41L65.8029 186.984Z" fill="#0099FF"/>
<path d="M65.8026 186.984L69.4299 184.869L66.322 175.13L61.957 172.41L65.8026 186.984Z" fill="#407BFF"/>
<path opacity="0.2" d="M65.8026 186.984L69.4299 184.869L66.322 175.13L61.957 172.41L65.8026 186.984Z" fill="#428DFF"/>
<path d="M125.276 189.134H124.975C124.396 189.118 123.847 188.874 123.449 188.455C123.051 188.036 122.836 187.476 122.851 186.899C122.867 186.322 123.112 185.775 123.532 185.378C123.953 184.981 124.514 184.767 125.093 184.782C128.454 184.891 135.569 182.833 139.637 178.899C139.883 178.658 140.182 178.479 140.51 178.376C147.402 176.314 149.964 180.478 150.069 180.657L146.315 182.872C146.329 182.899 146.345 182.926 146.363 182.95C146.324 182.894 145.346 181.645 142.238 182.41C137.136 187.049 129.305 189.134 125.276 189.134Z" fill="#263238"/>
<path d="M125.009 192.023L117.061 191.527L116.437 176.914L127.118 177.31L125.009 192.023Z" fill="#0099FF"/>
<path d="M125.009 192.024L126.868 190.178L128.021 181.07L127.117 177.31L125.009 192.024Z" fill="#407BFF"/>
<path opacity="0.2" d="M125.009 192.024L126.868 190.178L128.021 181.07L127.117 177.31L125.009 192.024Z" fill="#428DFF"/>
<path d="M171.068 186.493C170.783 186.492 170.506 186.399 170.278 186.227C165.739 182.789 159.606 176.684 157.253 170.796C157.218 170.71 157.193 170.621 157.179 170.53C156.031 163.724 154.935 149.402 154.887 148.797C154.875 148.626 154.896 148.454 154.95 148.29C155.003 148.127 155.089 147.976 155.202 147.845C155.429 147.582 155.751 147.42 156.099 147.394C156.446 147.368 156.789 147.48 157.053 147.707C157.317 147.933 157.48 148.255 157.506 148.601C157.506 148.745 158.628 163.206 159.746 169.956C162.094 175.683 168.476 181.562 171.872 184.147C172.09 184.312 172.251 184.542 172.332 184.804C172.412 185.065 172.409 185.345 172.321 185.605C172.233 185.864 172.066 186.089 171.843 186.248C171.619 186.408 171.352 186.493 171.077 186.493H171.068Z" fill="#263238"/>
<path d="M177.123 187.15C176.11 187.15 174.962 186.693 173.709 185.792C173.428 185.589 173.239 185.283 173.184 184.941C173.13 184.599 173.213 184.249 173.417 183.969C173.621 183.688 173.928 183.5 174.271 183.445C174.614 183.39 174.965 183.474 175.246 183.677C176.328 184.456 176.918 184.547 177.123 184.547C177.47 184.547 177.803 184.685 178.049 184.93C178.294 185.175 178.432 185.507 178.432 185.853C178.432 186.199 178.294 186.531 178.049 186.776C177.803 187.021 177.47 187.158 177.123 187.158V187.15Z" fill="#263238"/>
<path d="M174.076 185.752C175.477 181.605 181.221 182.423 183.203 183.041C184.896 183.531 186.519 184.233 188.035 185.13C189.105 185.826 189.122 186.997 187.695 187.663C185.949 188.481 181.514 187.754 181.514 187.754C183.801 188.751 181.514 190.365 177.494 188.781C176.189 188.268 173.583 187.276 174.076 185.752Z" fill="#0099FF"/>
<path d="M160.135 150.572C159.615 154.097 156.686 156.695 154.303 156.347C151.92 155.999 151.824 152.866 152.343 149.324C152.863 145.781 153.805 143.231 156.189 143.579C158.572 143.927 160.654 147.061 160.135 150.572Z" fill="#263238"/>
<path d="M102.525 136.516C102.723 136.516 102.883 136.357 102.883 136.16C102.883 135.962 102.723 135.803 102.525 135.803C102.327 135.803 102.167 135.962 102.167 136.16C102.167 136.357 102.327 136.516 102.525 136.516Z" fill="#263238"/>
<path d="M106.161 138.727C106.161 138.798 106.14 138.867 106.101 138.925C106.062 138.984 106.006 139.03 105.94 139.057C105.875 139.084 105.803 139.091 105.733 139.077C105.664 139.063 105.6 139.029 105.55 138.979C105.5 138.929 105.466 138.866 105.452 138.797C105.438 138.727 105.445 138.656 105.473 138.59C105.5 138.525 105.546 138.469 105.604 138.43C105.663 138.391 105.732 138.37 105.803 138.37C105.898 138.37 105.989 138.408 106.056 138.475C106.123 138.542 106.161 138.632 106.161 138.727Z" fill="#263238"/>
<path d="M106.563 180.896C106.563 180.966 106.542 181.035 106.502 181.094C106.463 181.153 106.407 181.199 106.342 181.226C106.276 181.253 106.204 181.26 106.135 181.246C106.065 181.232 106.002 181.198 105.952 181.148C105.901 181.098 105.867 181.035 105.854 180.966C105.84 180.896 105.847 180.825 105.874 180.759C105.901 180.694 105.947 180.638 106.006 180.599C106.065 180.56 106.134 180.539 106.205 180.539C106.3 180.539 106.391 180.577 106.458 180.644C106.525 180.71 106.563 180.801 106.563 180.896Z" fill="#263238"/>
<path d="M109.841 183.468C109.841 183.538 109.82 183.607 109.781 183.666C109.741 183.725 109.685 183.77 109.62 183.797C109.554 183.824 109.483 183.831 109.413 183.818C109.344 183.804 109.28 183.77 109.23 183.72C109.18 183.67 109.146 183.607 109.132 183.537C109.118 183.468 109.125 183.396 109.152 183.331C109.179 183.266 109.225 183.21 109.284 183.171C109.343 183.132 109.412 183.111 109.483 183.111C109.578 183.111 109.669 183.148 109.736 183.215C109.803 183.282 109.841 183.373 109.841 183.468Z" fill="#263238"/>
<path d="M46.9289 187.745C46.3005 187.716 45.6867 187.546 45.1329 187.249C44.5791 186.951 44.0994 186.534 43.7294 186.026C43.7112 186.003 43.698 185.976 43.6906 185.948C43.6831 185.919 43.6816 185.889 43.6861 185.86C43.6906 185.831 43.701 185.803 43.7167 185.778C43.7323 185.753 43.753 185.731 43.7773 185.715C43.8016 185.698 43.8291 185.686 43.8581 185.68C43.8871 185.674 43.917 185.674 43.946 185.68C43.975 185.686 44.0025 185.698 44.0268 185.715C44.0511 185.732 44.0717 185.753 44.0873 185.778C44.9035 186.953 46.7063 187.576 47.492 187.206C47.5706 187.173 47.6408 187.122 47.6971 187.058C47.3001 186.884 46.9523 186.615 46.6843 186.275C46.4163 185.935 46.2365 185.534 46.1606 185.108C46.0602 184.556 45.9817 183.803 46.4356 183.707C47.0642 183.568 47.8848 185.078 48.1816 186.222C48.2354 186.412 48.2546 186.609 48.2384 186.805C48.4901 186.88 48.7549 186.901 49.0153 186.866C49.1327 186.857 49.2468 186.824 49.3506 186.769C49.4543 186.713 49.5452 186.637 49.6177 186.544C49.3304 186.328 49.0921 186.054 48.9184 185.74C48.7446 185.426 48.6393 185.078 48.6094 184.721C48.4435 183.529 48.5701 183.324 48.7011 183.22C48.7435 183.187 48.7941 183.167 48.8473 183.162C48.9005 183.156 48.9541 183.166 49.0022 183.189C49.4693 183.385 50.0324 185.073 50.1415 186.031C50.1546 186.131 50.1546 186.231 50.1415 186.331C50.3297 186.403 50.5292 186.442 50.7308 186.444C51.1009 186.459 51.467 186.363 51.7827 186.17C51.7216 186.131 51.6649 186.087 51.6081 186.044C51.1716 185.657 50.9708 185.039 51.0494 184.16C51.1105 183.476 51.2633 183.102 51.5383 182.985C51.627 182.949 51.7242 182.94 51.8179 182.959C51.9117 182.977 51.998 183.022 52.0664 183.089C52.3611 183.413 52.5813 183.798 52.7117 184.216C52.8421 184.634 52.8796 185.075 52.8216 185.509C52.7837 185.689 52.7078 185.86 52.599 186.009C53.4021 186.148 54.5283 185.922 55.5017 185.683C55.5303 185.676 55.5601 185.675 55.5892 185.679C55.6183 185.684 55.6462 185.694 55.6713 185.709C55.6965 185.725 55.7183 185.745 55.7356 185.769C55.753 185.793 55.7654 185.819 55.7723 185.848C55.7792 185.877 55.7804 185.906 55.7757 185.935C55.7711 185.964 55.7608 185.992 55.7454 186.017C55.73 186.042 55.7098 186.064 55.686 186.081C55.6621 186.099 55.6351 186.111 55.6064 186.118C54.4235 186.409 53.149 186.649 52.2498 186.388C51.8108 186.72 51.2734 186.898 50.722 186.892C50.4774 186.889 50.2351 186.844 50.0062 186.758C49.9046 186.914 49.7684 187.045 49.608 187.141C49.4475 187.237 49.2672 187.295 49.0808 187.31C48.7527 187.352 48.4194 187.324 48.1031 187.228C48.0012 187.399 47.8487 187.534 47.6666 187.615C47.4324 187.709 47.1812 187.754 46.9289 187.745ZM46.5535 184.142C46.4931 184.438 46.5051 184.744 46.5884 185.034C46.65 185.382 46.7948 185.71 47.0106 185.991C47.2264 186.271 47.5068 186.495 47.8281 186.644C47.822 186.541 47.8044 186.439 47.7757 186.34C47.4352 185.095 46.7805 184.238 46.5535 184.142ZM48.9848 183.764C48.9876 184.064 49.0124 184.363 49.059 184.66C49.1071 185.191 49.3422 185.687 49.7225 186.061C49.615 185.258 49.3653 184.48 48.9848 183.764ZM51.7303 183.385C51.7303 183.385 51.5645 183.468 51.5034 184.194C51.4423 184.921 51.5688 185.422 51.9093 185.713C51.9899 185.778 52.0778 185.834 52.1712 185.879C52.286 185.756 52.3672 185.606 52.4069 185.443C52.4847 184.758 52.299 184.069 51.8875 183.516C51.7958 183.402 51.7434 183.385 51.7303 183.385Z" fill="#263238"/>
<path d="M110.815 191.036L111.998 188.99L110.815 186.945H109.549L110.265 188.99L109.549 191.036H110.815Z" fill="#263238"/>
<path d="M109.632 190.056C109.486 190.066 109.34 190.045 109.202 189.996C109.064 189.946 108.938 189.87 108.832 189.77C108.725 189.67 108.64 189.55 108.582 189.416C108.524 189.282 108.494 189.138 108.494 188.992C108.494 188.846 108.524 188.702 108.582 188.569C108.64 188.435 108.725 188.314 108.832 188.215C108.938 188.115 109.064 188.038 109.202 187.989C109.34 187.94 109.486 187.919 109.632 187.928L107.624 187.528L107.087 189.147L107.986 190.513L109.632 190.056Z" fill="#263238"/>
<path d="M109.806 186.945H107.436L106.253 188.99L107.436 191.036H109.806L110.989 188.99L109.806 186.945ZM108.623 190.056C108.411 190.057 108.204 189.995 108.028 189.879C107.851 189.762 107.714 189.596 107.632 189.401C107.55 189.206 107.529 188.992 107.569 188.785C107.61 188.578 107.712 188.387 107.861 188.238C108.01 188.088 108.201 187.986 108.408 187.945C108.616 187.903 108.831 187.924 109.027 188.005C109.223 188.085 109.39 188.222 109.508 188.397C109.625 188.573 109.688 188.779 109.688 188.99C109.688 189.272 109.576 189.543 109.376 189.743C109.177 189.942 108.906 190.055 108.623 190.056Z" fill="#0099FF"/>
<path d="M193.322 186.806L192.444 185.287L193.322 183.768H194.26L193.732 185.287L194.26 186.806H193.322Z" fill="#0099FF"/>
<path d="M194.198 186.079C194.307 186.087 194.417 186.072 194.52 186.036C194.623 186 194.718 185.943 194.798 185.869C194.878 185.795 194.942 185.705 194.985 185.606C195.029 185.506 195.052 185.398 195.052 185.289C195.052 185.18 195.029 185.072 194.985 184.972C194.942 184.872 194.878 184.783 194.798 184.708C194.718 184.634 194.623 184.577 194.52 184.541C194.417 184.505 194.307 184.491 194.198 184.499L195.691 184.203L196.088 185.404L195.425 186.418L194.198 186.079Z" fill="#0099FF"/>
<path d="M194.072 183.768H195.818L196.691 185.287L195.818 186.806H194.072L193.199 185.287L194.072 183.768ZM194.945 186.079C195.102 186.08 195.257 186.034 195.388 185.948C195.519 185.861 195.621 185.738 195.682 185.593C195.743 185.448 195.759 185.289 195.729 185.135C195.699 184.981 195.624 184.84 195.513 184.728C195.402 184.617 195.26 184.541 195.106 184.51C194.952 184.479 194.792 184.495 194.647 184.555C194.501 184.615 194.377 184.716 194.289 184.846C194.202 184.977 194.155 185.13 194.155 185.287C194.155 185.391 194.175 185.494 194.214 185.591C194.254 185.687 194.313 185.775 194.387 185.848C194.46 185.922 194.548 185.98 194.645 186.02C194.742 186.059 194.845 186.079 194.95 186.079H194.945Z" fill="#263238"/>
<path d="M160.631 188.824H162.604C162.851 188.823 163.088 188.725 163.262 188.55C163.436 188.376 163.534 188.139 163.534 187.893C163.534 187.647 163.436 187.411 163.262 187.236C163.088 187.062 162.851 186.963 162.604 186.962H160.631C160.384 186.962 160.146 187.06 159.971 187.235C159.796 187.409 159.697 187.646 159.697 187.893C159.697 188.14 159.796 188.377 159.971 188.552C160.146 188.726 160.384 188.824 160.631 188.824Z" fill="#263238"/>
<path d="M157.459 187.067C157.642 186.735 157.919 186.464 158.255 186.286C158.591 186.109 158.971 186.034 159.35 186.07C159.728 186.106 160.087 186.251 160.384 186.488C160.68 186.725 160.9 187.044 161.017 187.404C161.134 187.765 161.143 188.152 161.042 188.517C160.941 188.882 160.736 189.21 160.45 189.46C160.165 189.71 159.812 189.871 159.436 189.924C159.059 189.977 158.676 189.918 158.332 189.756C157.86 189.514 157.503 189.095 157.34 188.591C157.176 188.087 157.219 187.539 157.459 187.067Z" fill="#0099FF"/>
<path d="M157.991 189.756L158.532 190.01L160.412 186.034L159.871 185.78L157.991 189.756Z" fill="#263238"/>
</g>
<defs>
<clipPath id="clip0">
<rect width="218.249" height="186.039" fill="white" transform="translate(10.9131 6.52783)"/>
</clipPath>
</defs>
</svg>