<svg width="220" height="200" viewBox="0 0 220 200" fill="none" xmlns="http://www.w3.org/2000/svg">
<g clip-path="url(#clip0)">
<path d="M21.9972 153.258C21.9972 153.258 45.1674 182.598 84.7648 183.79C124.362 184.983 159.774 160.282 188.987 141.063C218.201 121.843 227.787 89.6424 213.201 63.0838C198.614 36.525 172.147 45.6245 140.382 26.9611C108.617 8.29768 102.923 -1.48982 66.0497 0.184444C29.1759 1.8587 -1.29902 41.2382 0.0426757 85.3536C1.38438 129.469 21.9972 153.258 21.9972 153.258Z" fill="#F7F9FB"/>
<path d="M21.9972 153.258C21.9972 153.258 45.1674 182.598 84.7648 183.79C124.362 184.983 159.774 160.282 188.987 141.063C218.201 121.843 227.787 89.6424 213.201 63.0838C198.614 36.525 172.147 45.6245 140.382 26.9611C108.617 8.29768 102.923 -1.48982 66.0497 0.184444C29.1759 1.8587 -1.29902 41.2382 0.0426757 85.3536C1.38438 129.469 21.9972 153.258 21.9972 153.258Z" fill="#F7F9FB"/>
<path d="M72.6951 200.001C95.5711 200.001 114.116 197.747 114.116 194.967C114.116 192.186 95.5711 189.932 72.6951 189.932C49.8191 189.932 31.2744 192.186 31.2744 194.967C31.2744 197.747 49.8191 200.001 72.6951 200.001Z" fill="#2D66FE"/>
<path d="M72.6951 200.001C95.5711 200.001 114.116 197.747 114.116 194.967C114.116 192.186 95.5711 189.932 72.6951 189.932C49.8191 189.932 31.2744 192.186 31.2744 194.967C31.2744 197.747 49.8191 200.001 72.6951 200.001Z" fill="#F7F9FB"/>
<path d="M158.409 194.949C158.409 196.337 149.161 197.46 137.767 197.46C126.374 197.46 117.126 196.314 117.126 194.949C117.126 193.584 126.369 192.443 137.767 192.443C149.166 192.443 158.409 193.584 158.409 194.949Z" fill="#2D66FE"/>
<path d="M158.409 194.949C158.409 196.337 149.161 197.46 137.767 197.46C126.374 197.46 117.126 196.314 117.126 194.949C117.126 193.584 126.369 192.443 137.767 192.443C149.166 192.443 158.409 193.584 158.409 194.949Z" fill="#F7F9FB"/>
<path d="M80.9575 29.1227C80.9575 29.1227 77.7522 26.6056 74.0769 27.8612C70.4015 29.1169 67.6149 35.2406 66.623 40.2175C65.631 45.1945 61.8181 48.9672 62.7355 54.8042C63.6529 60.6412 70.2869 61.5529 78.2969 62.4129C86.3071 63.2729 90.6535 62.2982 94.4263 57.0346C98.1991 51.771 96.5991 45.3664 94.3687 39.7015C92.1383 34.0365 88.4223 28.7787 85.3319 27.804C82.2415 26.8292 80.9575 29.1227 80.9575 29.1227Z" fill="#263238" stroke="#263238" stroke-linecap="round" stroke-linejoin="round"/>
<path d="M67.7124 59.0586C68.2532 59.3018 68.8157 59.4938 69.3924 59.632" stroke="white" stroke-linecap="round" stroke-linejoin="round"/>
<path d="M80.1545 33.1997C78.8484 36.1184 77.1926 38.8678 75.2238 41.3875C71.9441 45.6018 64.6909 49.5811 64.2265 54.0018C64.1518 54.5936 64.2037 55.1946 64.3786 55.7649C64.5536 56.3352 64.8476 56.862 65.2414 57.3102" stroke="white" stroke-linecap="round" stroke-linejoin="round"/>
<path d="M93.4622 54.3403C93.2254 54.8953 92.9214 55.4191 92.5566 55.8999" stroke="white" stroke-linecap="round" stroke-linejoin="round"/>
<path d="M90.7051 43.2622C90.7051 43.2622 94.3923 47.5167 94.0363 52.0578" stroke="white" stroke-linecap="round" stroke-linejoin="round"/>
<path d="M79.4551 30.8546C78.0181 30.7083 76.5671 30.9084 75.2233 31.4381C73.8796 31.9678 72.6823 32.8117 71.7317 33.8992C71.5999 34.0483 71.4795 34.1973 71.3647 34.3465" stroke="white" stroke-linecap="round" stroke-linejoin="round"/>
<path d="M58.3034 138.93L57.5867 149.961C57.5867 149.961 54.5363 164.761 53.5731 170.861C52.6098 176.962 50.8438 186.239 50.5227 186.239C50.2016 186.239 44.938 189.422 43.2523 192.019C41.5666 194.617 43.7052 195.717 46.0447 194.885C48.384 194.054 51.5605 191.704 52.5983 188.911C53.6361 186.119 54.1522 185.081 54.221 184.628C54.2898 184.175 65.3846 154.388 66.4855 151.206C67.5863 148.024 69.9257 138.678 69.9257 138.678L75.3785 120.181C75.3785 120.181 81.2152 139.2 81.284 140.042C81.3528 140.885 87.316 189.496 87.5912 191.313C87.8664 193.131 87.7864 194.427 88.8872 194.817C89.988 195.207 92.5856 195.207 93.9504 195.207C95.3144 195.207 100.051 195.924 102.385 195.339C104.718 194.754 104.982 194.364 103.359 193.194C101.737 192.025 92.7232 191.279 91.892 187.873C91.8232 187.615 91.76 137.577 91.76 137.577C91.76 137.577 90.98 121.03 89.684 116.362H59.6967L58.3034 138.93Z" fill="white" stroke="#263238" stroke-linecap="round" stroke-linejoin="round"/>
<path d="M46.0388 194.874C48.3725 194.026 51.5547 191.692 52.5925 188.9L52.8104 188.326C51.4859 189.737 49.3701 191.698 49.3701 191.698C49.2405 191.033 48.9512 190.41 48.5273 189.881C48.3423 189.677 48.1053 189.526 47.8417 189.446C47.5781 189.367 47.2978 189.36 47.0308 189.427L49.3242 186.905C47.6041 187.971 44.5079 190.15 43.2923 192.025C41.555 194.611 43.688 195.718 46.0388 194.874Z" fill="#263238" stroke="#263238" stroke-linecap="round" stroke-linejoin="round"/>
<path d="M103.319 193.183C102.206 192.386 97.6368 191.784 94.5864 190.391C94.4608 190.498 94.3624 190.634 94.3 190.787C94.1064 191.336 93.9552 191.899 93.8472 192.472L87.54 191.125V191.303C87.7976 193.12 87.7344 194.416 88.836 194.806C89.9368 195.195 92.5336 195.195 93.8984 195.195C95.2632 195.195 99.9992 195.912 102.333 195.327C104.666 194.743 104.965 194.376 103.319 193.183Z" fill="#263238" stroke="#263238" stroke-linecap="round" stroke-linejoin="round"/>
<path d="M67.0418 89.4478C67.0418 89.4478 64.066 90.8182 60.4652 97.2854C56.5261 104.344 57.2027 108.265 57.1454 116.781C57.088 125.295 56.916 139.429 56.916 139.429C56.916 139.429 67.8101 142.347 75.6252 141.889C83.4402 141.429 93.3538 139.658 93.3538 139.658C93.3538 139.658 91.2386 110.829 89.237 102.537C87.2362 94.247 86.0322 90.4966 86.0322 90.4966C82.1642 91.0334 78.2455 91.091 74.3638 90.6686C67.7299 90.0206 67.0418 89.4478 67.0418 89.4478Z" fill="#263238" stroke="#263238" stroke-linecap="round" stroke-linejoin="round"/>
<path d="M79.5757 114.945C79.8738 115.926 80.1489 116.918 80.3897 117.91" stroke="white" stroke-linecap="round" stroke-linejoin="round"/>
<path d="M72.6665 98.7192C74.9763 102.982 76.9582 107.413 78.5952 111.976" stroke="white" stroke-linecap="round" stroke-linejoin="round"/>
<path d="M140.084 83.9665C139.74 83.7369 134.104 82.8545 134.104 82.8545L133.002 82.4009C133.002 82.4009 139.826 82.9457 139.883 82.6593C139.941 82.3721 140.17 82.0281 139.711 81.9713C139.253 81.9137 130.474 80.1305 130.474 80.1305C130.474 80.1305 132.705 78.0206 132.991 77.5618C133.278 77.1031 133.674 76.1858 133.215 76.1858C132.756 76.1858 132.642 76.4724 132.017 76.8738C131.391 77.2751 128.926 78.2499 128.238 78.8175C127.55 79.3852 125.498 80.8761 125.498 80.8761L101.656 77.5962C101.656 77.5962 93.2847 67.2755 91.4671 65.0738C90.2039 63.6044 88.7655 62.295 87.1839 61.1748C85.4295 60.4007 85.4639 61.6966 85.4639 61.6966L89.1279 77.9804C89.1279 77.9804 98.6055 83.6281 99.1903 83.6281C99.7759 83.6281 125.382 84.4769 125.382 84.4769C125.382 84.4769 127.102 85.2793 128.181 85.9617C129.258 86.6441 136.134 88.8289 136.134 88.8289C136.134 88.8289 136.592 88.5993 136.076 88.1977C135.56 87.7969 132.246 86.1969 132.246 86.1969L139.126 87.6873C139.126 87.6873 139.528 87.4009 139.356 87.1145C139.184 86.8273 133.049 84.4825 133.049 84.4825L139.929 84.8265C139.929 84.8265 140.422 84.1961 140.084 83.9665Z" fill="white" stroke="#263238" stroke-linecap="round" stroke-linejoin="round"/>
<path d="M100.217 75.8245C97.7455 72.7799 92.8087 66.7021 91.4671 65.0738C90.2039 63.6044 88.7655 62.295 87.1839 61.1748C85.4295 60.4007 85.4639 61.6966 85.4639 61.6966L89.1279 77.9804C89.1279 77.9804 93.4055 80.5265 96.3871 82.2001L100.217 75.8245Z" fill="white" stroke="#263238" stroke-linecap="round" stroke-linejoin="round"/>
<path d="M74.8795 59.7809C74.8795 59.7809 69.9026 60.0103 66.8522 63.3875C63.8018 66.7647 64.1631 74.1956 65.4245 78.6564C66.6859 83.1174 68.2914 85.5774 67.9417 87.1254C67.5919 88.6734 66.3419 89.1838 67.0242 90.611C67.7066 92.039 71.6571 93.587 78.6351 93.3582C85.6134 93.1286 86.9318 91.6374 86.9894 90.3302C87.0462 89.023 86.5302 87.9278 86.7022 87.1254C86.8742 86.3222 91.9086 81.8614 91.9086 76.9421C91.9086 72.0225 89.7358 70.3081 89.2198 66.7589C88.7038 63.2097 88.8758 62.6994 86.7598 61.1513C84.6438 59.6032 77.6833 58.8062 74.8795 59.7809Z" fill="white" stroke="#263238" stroke-linecap="round" stroke-linejoin="round"/>
<path d="M72.6205 76.833C70.9571 78.2249 69.1109 79.3825 67.1333 80.2734" stroke="#263238" stroke-linecap="round" stroke-linejoin="round"/>
<path d="M73.171 77.4072C73.171 77.4072 71.9382 81.3866 68.9165 83.5826" stroke="#263238" stroke-linecap="round" stroke-linejoin="round"/>
<path d="M85.5217 63.3823L86.0953 68.8753L83.6865 66.0715L85.5217 63.3823Z" fill="white" stroke="#263238" stroke-linecap="round" stroke-linejoin="round"/>
<path d="M82.3169 69.334L85.5217 63.3823L82.6033 60.2402L82.3169 69.334Z" fill="white" stroke="#263238" stroke-linecap="round" stroke-linejoin="round"/>
<path d="M76.1411 50.0571C76.6409 52.0402 76.8894 54.0783 76.8808 56.1234C76.8641 57.4477 76.7298 58.7678 76.4794 60.0682L82.316 69.334L83.9736 60.7334L85.0632 54.7818C85.0632 54.7818 78.4289 54.4033 76.1411 50.0571Z" fill="white" stroke="#263238" stroke-linecap="round" stroke-linejoin="round"/>
<path d="M81.9721 64.3569L82.3161 69.3338L80.6025 66.6447L81.9721 64.3569Z" fill="white" stroke="#263238" stroke-linecap="round" stroke-linejoin="round"/>
<path d="M74.5356 59.8391L79.8565 69.3916L81.9719 64.3574L76.3131 56.5767L74.5356 59.8391Z" fill="white" stroke="#263238" stroke-linecap="round" stroke-linejoin="round"/>
<path d="M167.755 64.2939H119.471V103.915H167.755V64.2939Z" fill="#2D66FE"/>
<path opacity="0.2" d="M167.755 64.2939H119.471V103.915H167.755V64.2939Z" fill="#428DFF"/>
<path d="M167.755 64.2939H119.471V103.915H167.755V64.2939Z" stroke="#263238" stroke-linecap="round" stroke-linejoin="round"/>
<path d="M157.532 64.2939H109.248V103.915H157.532V64.2939Z" fill="#0099FF" stroke="#263238" stroke-linecap="round" stroke-linejoin="round"/>
<path d="M175.708 117.25C174.16 114.796 167.755 103.914 167.755 103.914H157.538L162.795 117.25H175.708Z" fill="#2D66FE"/>
<path opacity="0.2" d="M175.708 117.25C174.16 114.796 167.755 103.914 167.755 103.914H157.538L162.795 117.25H175.708Z" fill="#428DFF"/>
<path d="M175.708 117.25C174.16 114.796 167.755 103.914 167.755 103.914H157.538L162.795 117.25H175.708Z" stroke="#263238" stroke-linecap="round" stroke-linejoin="round"/>
<path d="M101.266 117.25C102.814 114.796 109.213 103.914 109.213 103.914H119.437L114.179 117.25H101.266Z" fill="#0099FF" stroke="#263238" stroke-linecap="round" stroke-linejoin="round"/>
<path d="M109.214 103.914L104.77 117.25H155.198L157.537 103.914H109.214Z" fill="#0099FF" stroke="#263238" stroke-linecap="round" stroke-linejoin="round"/>
<path d="M173.971 78.6284V91.8963" stroke="#263238" stroke-linecap="round" stroke-linejoin="round"/>
<path d="M176.482 84.3672V95.124" stroke="#263238" stroke-linecap="round" stroke-linejoin="round"/>
<path d="M104.059 91.896V100.141" stroke="#263238" stroke-linecap="round" stroke-linejoin="round"/>
<path d="M101.909 96.5576V103.008" stroke="#263238" stroke-linecap="round" stroke-linejoin="round"/>
<path d="M66.583 74.0239C68.2941 75.9619 70.28 77.6387 72.4773 79.0008C75.9176 81.059 88.5321 88.2094 89.5241 88.6102C90.5161 89.0118 120.641 84.0926 120.641 84.0926C120.641 84.0926 122.361 84.895 123.445 85.5774C124.528 86.2598 131.398 88.4446 131.398 88.4446C131.398 88.4446 131.856 88.215 131.34 87.819C130.824 87.4238 127.51 85.8126 127.51 85.8126L134.39 87.303C134.39 87.303 134.792 87.0166 134.62 86.7302C134.448 86.443 128.313 84.0982 128.313 84.0982L135.193 84.4422C135.193 84.4422 135.709 83.8118 135.365 83.5822C135.021 83.3526 127.974 81.747 127.974 81.747C127.974 81.747 135.468 81.1166 135.526 80.8302C135.583 80.543 135.812 80.2046 135.354 80.1478C134.895 80.0902 125.514 79.1728 125.514 79.1728C125.514 79.1728 127.974 77.6305 128.261 77.1717C128.548 76.713 128.949 75.7957 128.49 75.7957C128.032 75.7957 127.917 76.0823 127.292 76.4837C126.667 76.885 124.202 77.8598 123.514 78.4274C122.826 78.9951 120.767 80.4918 120.767 80.4918L93.1993 80.5486L76.0838 67.0459" fill="white"/>
<path d="M66.583 74.0239C68.2941 75.9619 70.28 77.6387 72.4773 79.0008C75.9176 81.059 88.5321 88.2094 89.5241 88.6102C90.5161 89.0118 120.641 84.0926 120.641 84.0926C120.641 84.0926 122.361 84.895 123.445 85.5774C124.528 86.2598 131.398 88.4446 131.398 88.4446C131.398 88.4446 131.856 88.215 131.34 87.819C130.824 87.4238 127.51 85.8126 127.51 85.8126L134.39 87.303C134.39 87.303 134.792 87.0166 134.62 86.7302C134.448 86.443 128.313 84.0982 128.313 84.0982L135.193 84.4422C135.193 84.4422 135.709 83.8118 135.365 83.5822C135.021 83.3526 127.974 81.747 127.974 81.747C127.974 81.747 135.468 81.1166 135.526 80.8302C135.583 80.543 135.812 80.2046 135.354 80.1478C134.895 80.0902 125.514 79.1728 125.514 79.1728C125.514 79.1728 127.974 77.6305 128.261 77.1717C128.548 76.713 128.949 75.7957 128.49 75.7957C128.032 75.7957 127.917 76.0823 127.292 76.4837C126.667 76.885 124.202 77.8598 123.514 78.4274C122.826 78.9951 120.767 80.4918 120.767 80.4918L93.1993 80.5486L76.0838 67.0459" stroke="#263238" stroke-linecap="round" stroke-linejoin="round"/>
<path d="M135.342 80.1477C134.889 80.0901 125.503 79.1726 125.503 79.1726C125.503 79.1726 127.962 77.6302 128.25 77.1716C128.536 76.7128 128.938 75.7954 128.479 75.7954C128.02 75.7954 127.906 76.0821 127.281 76.4835C126.655 76.8848 124.19 77.8596 123.502 78.4273C122.814 78.9948 120.755 80.4917 120.755 80.4917L93.1873 80.5485L90.1313 78.1233C88.9849 80.1357 86.8401 83.9085 85.4473 86.3973C87.5913 87.5901 89.2145 88.4781 89.5409 88.6101C90.5161 89.0117 120.658 84.0925 120.658 84.0925C120.658 84.0925 122.378 84.8949 123.462 85.5773C124.546 86.2597 131.414 88.4437 131.414 88.4437C131.414 88.4437 131.873 88.2149 131.357 87.8189C130.841 87.4237 127.527 85.8125 127.527 85.8125L134.407 87.3029C134.407 87.3029 134.809 87.0165 134.637 86.7293C134.465 86.4429 128.33 84.0981 128.33 84.0981L135.21 84.4421C135.21 84.4421 135.726 83.8109 135.382 83.5821C135.038 83.3525 127.974 81.7469 127.974 81.7469C127.974 81.7469 135.468 81.1165 135.526 80.8293C135.583 80.5429 135.801 80.2045 135.342 80.1477Z" fill="white" stroke="#263238" stroke-linecap="round" stroke-linejoin="round"/>
<path d="M89.1802 45.2523C89.2778 45.1336 89.4066 45.0448 89.5522 44.996C89.6978 44.9472 89.8546 44.9404 90.0042 44.9763C90.1538 45.0121 90.2898 45.0893 90.3978 45.1989C90.505 45.3085 90.5802 45.4463 90.613 45.5963C90.709 46.2183 90.677 46.8532 90.5194 47.4625C90.3618 48.0717 90.0818 48.6424 89.6962 49.1398C89.065 49.7705 88.4922 49.9425 88.4922 49.1398C88.6514 47.8325 88.881 46.5347 89.1802 45.2523Z" fill="white" stroke="#263238" stroke-linecap="round" stroke-linejoin="round"/>
<path d="M82.1385 35.23C81.9377 38.0204 80.7433 40.6465 78.773 42.6323C76.9371 44.4376 74.861 45.9811 72.6035 47.2193C72.6035 47.2193 72.9361 49.014 73.6126 49.5758C74.2892 50.1377 75.631 50.0288 75.631 50.0288C76.411 52.1615 77.6795 54.082 79.335 55.6365C82.0241 58.102 85.1665 57.8783 86.9609 54.1801C88.7553 50.4818 89.6561 46.7721 89.4321 44.6391L89.2081 42.5061C89.2081 42.5061 83.3713 39.2665 82.1385 35.23Z" fill="white" stroke="#263238" stroke-linecap="round" stroke-linejoin="round"/>
<path d="M81.8002 46.3187C82.0858 46.3187 82.3162 45.908 82.3162 45.4013C82.3162 44.8946 82.0858 44.4839 81.8002 44.4839C81.5154 44.4839 81.2842 44.8946 81.2842 45.4013C81.2842 45.908 81.5154 46.3187 81.8002 46.3187Z" fill="#263238"/>
<path d="M84.6039 53.64C84.8887 53.64 85.1199 53.2293 85.1199 52.7226C85.1199 52.2159 84.8887 51.8052 84.6039 51.8052C84.3191 51.8052 84.0879 52.2159 84.0879 52.7226C84.0879 53.2293 84.3191 53.64 84.6039 53.64Z" fill="#263238"/>
<path d="M86.7777 46.3187C87.0625 46.3187 87.2937 45.908 87.2937 45.4013C87.2937 44.8946 87.0625 44.4839 86.7777 44.4839C86.4921 44.4839 86.2617 44.8946 86.2617 45.4013C86.2617 45.908 86.4921 46.3187 86.7777 46.3187Z" fill="#263238"/>
<path d="M85.7448 44.4258C85.548 45.1127 85.4896 45.8319 85.5728 46.5415C85.7448 47.5163 86.548 49.1734 85.86 49.46C85.5456 49.6032 85.1984 49.6576 84.856 49.6171C84.5128 49.5767 84.188 49.4431 83.916 49.2307" stroke="#263238" stroke-linecap="round" stroke-linejoin="round"/>
<path d="M80.3096 43.7441C80.3096 43.7441 80.5848 41.9896 82.884 42.1903" stroke="#263238" stroke-linecap="round" stroke-linejoin="round"/>
<path d="M86.4683 42.7293C86.4683 42.7293 88.6123 41.0092 89.3059 44.157" stroke="#263238" stroke-linecap="round" stroke-linejoin="round"/>
</g>
<defs>
<clipPath id="clip0">
<rect width="220" height="200" fill="white"/>
</clipPath>
</defs>
</svg>